<svg id="Layer_1" data-name="Layer 1" xmlns="http://www.w3.org/2000/svg" viewBox="0 0 3207 1468"><defs><style>.cls-1{fill:#fff;}</style></defs><path class="cls-1" d="M-1143.23,1127.77h-261.93v-1468h3207v1468H1490.26c1.17-13.59,2.44-27.18,3.44-40.78.33-4.39,2.33-9.24-2.62-12.82-.86-.63-.65-3.14-.48-4.72,2.82-26.48,5.22-53,8.73-79.4,3.2-24,7.9-47.91,11.39-71.93,2.87-19.77,5.9-39.59,7.15-59.49,2.73-43.49,5.89-87,6.11-130.61.15-31.28,2.66-62.54,4-93.82,1.61-36.56,2.19-73.21,5-109.68,2.06-26.67.18-52.48-7.39-78-2-6.7-3.8-13.45-5.39-20.24-5-21.09-10.33-42.18-20.79-61.22-17.31-31.48-35.43-62.53-53.73-93.45-11-18.67-21.64-37.52-28-58.33a65,65,0,0,0-10.07-20.42c-4.82-6.42-9.72-12.67-10.84-21-.23-1.71-1.69-3.26-2.58-4.89-1,5.24-.44,10.06-.36,14.9.07,4,2.23,6,4.8,8.88,5.87,6.58,12.17,13.92,14.69,22.07,3.76,12.18,8.8,23.62,14.18,35,2.4,5.1,4.74,10.27,7.57,15.14,6.32,10.86,13.06,21.48,19.4,32.32,8,13.75,16.06,27.52,23.74,41.48,7.22,13.1,15.07,26,20.67,39.81,7.36,18.1,14.81,36.37,17.39,56.05a42.23,42.23,0,0,0,1.8,7.78c9.43,28.19,11.21,57,8,86.4-1.77,16.12-3.06,32.28-4.48,48.43-.2,2.3.14,4.63.15,6.95,0,5.64,0,11.28-.09,16.91,0,2.65-1.17,5.61-.32,7.87,2.79,7.41.85,14-1,21.31-1.68,6.7-.09,14.22,0,21.38,0,1-.4,2-.46,3q-.39,7-.67,13.94c-.16,4-.24,7.9-.42,11.85-.26,5.6-.66,11.19-.86,16.79-.51,13.93-.93,27.86-1.41,41.79-.4,11.59-.75,23.18-1.27,34.76-.5,11.2-1.06,22.39-1.83,33.57-.65,9.61-1.57,19.2-2.45,28.79-1.52,16.52-.54,33.13-3.51,49.68-4,22.19-6.14,44.7-9.16,67.07a73,73,0,0,1-2.36,12.71c-5,15.68-6.47,31.87-8,48.13-1.71,17.85-.5,36-4.86,53.59-.67,2.71-.69,6.61.8,8.62,3.86,5.23,3,10.75,2.45,16.29-1.23,12.55-2.73,25.07-4.13,37.6h-172c2.08-8.72,4.11-17.46,6.26-26.16,5-20.21,5-20.2,2.56-26.47-3.64,4.51-4.26,9.38-5.39,14q-4.74,19.3-9.43,38.64h-220c-5-15.82-10.06-31.65-15.18-47.44-1.27-3.93-3.81-5.12-8.66-2.18,2,6.72,3.67,13.77,6.15,20.53,3.6,9.81,7.77,19.4,11.69,29.09h-212c-.75-7.59-2.11-15.18-2.14-22.78-.07-22.27.77-44.55.56-66.82-.33-35.3-1.25-70.6-1.86-105.9-.28-15.65-1.32-31.36-.42-46.95,2-35.23,5-70.41,7.69-105.6.85-10.94,2.15-21.86,3.15-32.79.49-5.29,2.55-8.86,8-8.79l10,7.87-12.57,11.18c4.51-1.36,6.82-1.7,8.81-2.7,11.09-5.62,21-13.21,28.53-22.86,9.13-11.74,16.49-24.88,24.65-37.38,1.62-2.49,3.38-4.89,5.19-7.25,10.27-13.38,21.9-26,24.34-43.74.84-6.07,4-11.66,1.49-18.4-2.78-7.36-4-15.31-5.83-23-.76-3.17-1.23-6.43-2.17-9.55-1.52-5-3.7-9.83-4.89-14.9-1.57-6.73-3-13.38-7.41-18.52-7.14.35-4.63,7.51-8.05,10.18L927.44,552.2l-8.05,4.94L912,550.35l-15.08,7.94c-.25-4.45-.82-7.59-.51-10.65,1-9.91,2.55-19.78,3.56-29.69,3.32-32.58,11.12-64.28,19.47-95.79,6.21-23.43,14.41-46.33,21.59-69.5,1.19-3.84,1.72-7.89,2.55-11.84a172,172,0,0,0-14,33.11c-5.12,16.84-9.72,33.85-14,50.92-5.45,21.6-11.35,43.16-15.3,65-4.25,23.54-6.54,47.44-9.56,71.2-2,15.52-3.77,31.06-5.62,46.6-.94,7.93-1.6,15.89-2.78,23.78-3.16,21.07-6.95,42-9.67,63.17-2.12,16.49-2.94,33.15-4.46,49.72-1.93,20.88-4,41.73-6,62.61-1.29,13.92-2.4,27.86-3.64,41.79-.71,8-2.16,15.89-2.18,23.83-.05,27.29.26,54.57.67,81.86.2,13.29,1.25,26.57,1.38,39.87.22,21.61,0,43.23,0,64.84,0,16.92-.31,33.85.21,50.76.18,6-1.33,12.73,3.76,17.84h-124c-1.53-13.56-3.09-27.11-4.57-40.67-.53-4.77-2.73-9.79,2.74-13.62,1-.71.7-3.74.5-5.64-1.73-16.89-3.35-33.79-5.44-50.64-3.48-28.07-7.4-56.09-10.87-84.16-.94-7.59-1-15.29-1.34-22.94-.83-18.94-3.3-38-2-56.79,2-27.52,6.52-54.87,10.3-82.25,1.45-10.53,2.69-21.29,5.93-31.32,12-37,16.54-75.33,20.39-113.77.33-3.35.64-6.88-4.63-7.57a22.6,22.6,0,0,0-2.73,3.77c-7.19,15.49-16,29.89-27.69,42.45-.68.73-1.3,1.51-1.91,2.3-2.54,3.3-3.53,8.85-8.84,8.42s-5.77-6.05-7.22-9.82a415.87,415.87,0,0,0-23.69-51.66c-4.61-8.33-7.17-17.8-10.48-26.83-1.78-4.86-3.17-9.87-4.73-14.82-2.37,4.67-2.92,9.11-3.51,13.55-2.75,20.81-4.44,41.66-3.1,62.69.65,10.27.8,20.58,1,30.87,0,1.72-1,3.46-2.17,6.93C645.53,677.63,637.8,670,630,662.41c-7.66-7.4-15.34-14.77-23.19-21.95-1.33-1.21-3.59-1.4-5.42-2.06l-1.17,1.83c6.31,6.66,13.13,12.91,18.79,20.08a195.38,195.38,0,0,1,15.95,24.05,260.28,260.28,0,0,1,12.18,25.09c3.85,8.82,7.31,17.83,10.63,26.87,3.09,8.44,5.76,17,8.62,25.57,3.28-5.16.64-9.17-.41-13.41-1.43-5.8-1.33-6,4.22-10-5-9.36-9.61-18.94-15-28s-10.69-18.51-13.8-29c4.1,2.17,7.13,5.23,10.66,7.55s5.5,7.8,12,6.56c-.64-30.88-4.41-61.63,0-92.66,1.66.74,2.52.83,2.79,1.28,15.17,25.15,27.7,51.49,36.17,79.69.63,2.11,2.59,3.83,4,5.85a258.73,258.73,0,0,0,38.38-54.81,21.68,21.68,0,0,1,.87,9.46c-3.58,22-7,44-11.22,65.87-1.88,9.73-6.48,19-8.18,28.7-5.24,30.16-9.68,60.46-14.46,90.71-.53,3.34-1.28,6.66-2.29,11.87-3.18-3.83-4.92-5.75-6.47-7.81-6.38-8.52-13-16.89-19-25.68-3.58-5.28-7.79-6.37-14.16-4.64.63,15.81.74,31.37,2,46.83,1.52,18.52,4.13,36.95,6.08,55.44,1.5,14.21,2.56,28.47,4.05,42.68,2.15,20.53,11.51,39.44,13.43,60.1,1,10.85,3.57,21.56,5.12,32.37,1,7.24,1.32,14.59,2.31,21.83.7,5,1.52,9.72-2.51,14-1.2,1.29-.93,4.3-.74,6.46,1.27,14.88,2.7,29.74,4.08,44.61h-150c0-18.64,0-37.27-.09-55.91-.18-31-.61-62-.63-92.94,0-21.9,1-43.77-1-65.69s-2-43.93,2.75-65.66c.84-3.89,1.61-7.8,2.41-11.71,5.23-25.4,10.29-50.84,15.76-76.2,2.36-10.95,5.54-21.72,8.34-32.58l-2-1c-1.5,1.88-3.5,3.55-4.41,5.69-2.46,5.72-4.2,11.76-6.72,17.45-2.39,5.39-3.41,10.43.83,14.5-2.34,3.85-5.28,6.72-5.91,10-3.69,19.24-6.92,38.56-10.11,57.88-.87,5.24-.24,10.83-1.74,15.82-4,13.23-6.15,26.5-5,40.37a15,15,0,0,1-2.77,9.09c-5.17,7.28-10.89,14.18-16.52,21.12-1.12,1.37-2.81,2.27-5.32,4.24-2.91-10.65-5.67-20.16-8-29.78a6.1,6.1,0,0,1,1.93-5.21c9.52-6.36,14.37-16.47,20.85-25.26,1-1.31,1.29-3.08,2.39-5.82-12.3,5.74-15.07,19.36-26.1,24.75-4.88-5.81-4.66-12.75-6.48-19-1.13-3.88-.68-7.12,2.18-10.11,4.31-4.5,8.83-8.87,12.64-13.78,7.35-9.45,14.3-19.22,21.31-28.93a42,42,0,0,0,2.93-5.61l-1.69-1.48c-9,4.62-14.46,13.58-21.44,20.47-7.17,7.08-12.89,15.63-20,24.47-18.86-38.29-31.14-77.64-43.2-117.45,6.06,3.16,10.88,7.66,16.49,10.7,5.85,3.16,8.19,11.68,17.37,11.13-.17-2.67-.39-4.84-.43-7-.18-9-2.07-18.32-.09-26.78,4.9-21,4.83-42.31,6.93-63.48.31-3.14.85-6.26,1.46-10.62,1.66,2,2.53,2.55,2.79,3.35,3.11,9.47,6.11,19,9.19,28.46,1.83,5.66,4.18,11.18,5.52,17a98.6,98.6,0,0,0,17.46,37.32c-1.09-5.07-3.28-9.71-5.07-14.5-4.18-11.17-8.67-22.26-12.13-33.66-6.36-21-13.48-41.81-15.44-63.88-.26-2.88-1.55-5.71-5-4.46-1.46.53-2.8,3.44-2.85,5.3-.12,4.62,1,9.28.79,13.89-.4,9.25-1.82,18.46-2,27.7-.27,18.72-1.39,37.22-7.69,55.11-1.28,3.63-1.17,7.81-1.34,11.75s.41,7.95-3.93,11.65c-2.92-2.18-6.19-3.88-8.48-6.47-7.27-8.22-14.22-16.72-21.19-25.2-3.59-4.37-6.72-9.14-10.48-13.34-3.59-4-5-3.67-10.69,1.15,1.33,2.51,2.39,5.36,4.13,7.71,12.89,17.46,19.84,37.67,26,58A711.5,711.5,0,0,0,487,830.42c2.58,6.12,5.95,12,7.76,18.33,5.13,17.89,9.77,35.91,14.35,54,7.62,30,14.91,60.07,18.66,90.84,2.38,19.48,4.57,39,6.38,58.52.64,6.88,1.68,14.59-.69,20.66-2.65,6.81-1.75,12.92-1.39,19.39.67,11.89,1.57,23.77,2.38,35.66h-186c-.51-16-1.24-31.9-1.47-47.85-.21-13.93.54-27.88.16-41.81-.75-27.6-4.32-55-2.75-82.8,2.11-37.54,2.63-75.18,4.17-112.76,1.15-28.27,2.77-56.51,4.28-84.76,1.82-34.25,4-68.41,14.5-101.48,3.2-10.11,4.51-20.8,6.85-31.19,2.78-12.33,5.78-24.61,8.59-36.93,1.85-8.08,6.44-14.51,11.76-20.58,6.38-7.27,12.5-14.67,15.73-24.09,1.05-3.06,3.29-5.76,5.18-8.49,14.74-21.27,30-42.18,44.13-63.89,9.35-14.41,13.07-30.16,6-47.38-5.47-13.31-11.94-25.63-20.74-37.21a58,58,0,0,0-30.24-21.28c-9-2.78-17.94-3.82-27.29-.45s-9.51,2.88-14.83-5.54c-1.78-2.8-3.77-5.48-5.33-8.4-10.41-19.59-31.82-25.76-50.74-13.9-7.83,4.9-15,11-22,17-6.26,5.32-12,11.24-17.72,16.65-14.35-6.54-32.08-4.49-41.68,5.55-18.32,19.17-23.77,38.31-14.55,64,4,11.27,7.36,22.79,11.52,34,3.7,9.95,8.09,19.65,12.19,29.45,7.11,16.95,9.74,35.12,14.27,52.77.81,3.14.53,6.58.6,9.89.29,13.87-3.58,27.41-2.52,41.49.73,9.81-1.45,19.88-2.71,29.78-2.1,16.52-4.91,33-6.69,49.49-2.63,24.48-7.79,48.57-9.35,73.27-1.48,23.48-6,46.77-9.48,70.09-.95,6.36-.74,13.3-7.31,17.78-3.13,2.14-1.64,5.85-.62,9.2a31.14,31.14,0,0,1,1.35,10.46c-.87,18.24-2.25,36.47-3,54.71-.89,20.85,1.23,41.72-1.32,62.59-3.26,26.81-2.16,53.77-1.44,80.7.56,20.61.43,41.23.6,61.85h-116c-1.61-15.54-3.24-31.07-4.79-46.61-.16-1.61-.45-4.07.42-4.76,5.07-4.08,2.64-9.17,2.29-13.92-.78-10.61-1.85-21.21-2.62-31.82-.82-11.29-1.26-22.62-2.17-33.9A834.2,834.2,0,0,1,91.89,896c.93-23.24,4.39-46.39,7.16-69.53,2.84-23.78,5.56-47.61,9.54-71.21,3.82-22.58,5.43-45.59,12.71-67.6,2-6.1,3.2-13.1-.06-19.83a16.39,16.39,0,0,0-2.63,6.81c-.67,3.58-.27,7.7-1.94,10.69-5.76,10.3-10.45,20.62-7.51,32.82.07.28-.21.63-.26,1Q103,754.4,97.19,789.67c-.8,4.86-2.3,9.85-1.87,14.63,1.3,14.42-2.38,28.31-3.54,42.45-1.08,13.21-6.52,25.81-5.41,39.4.18,2.12-2,4.43-2.89,6.33-6.06-.8-11-1.5-15.92-2.09-7.55-.9-13.48,1.79-18.46,7.6a72.31,72.31,0,0,0-15.38,30.87c-2.35,9.71,1.67,18.22,3.61,27.08.49,2.22,4,4.45,6.61,5.37a33.13,33.13,0,0,0,11.75,1.94c8.76-.22,17.5-1.1,27.09-1.78A9.6,9.6,0,0,1,84.19,965c1.11,18.93,1.81,37.89,3.18,56.79.94,12.87,3,25.65,4.11,38.5.42,4.79,1.47,11.18-1,14.19-3.64,4.45-3.25,8.29-2.72,12.84q2.36,20.23,4.76,40.47h-124c.85-7.93,1.94-15.84,2.48-23.78.59-8.61,2.91-18,.26-25.64-2.13-6.12-2.21-11.22-1.62-17,.67-6.62,1.6-13.22,2-19.85,1.67-25.57,2.85-51.19,4.9-76.73,1.08-13.58,3.64-27,5.39-40.57q4-31.15,7.86-62.33,4.28-35.11,8.35-70.27C-1.09,785.53-.63,779.41,0,773c14.36.48,24.86-4.79,33.63-14.39,9.22-10.11,15-21,11.18-35.21-4-14.87-13.22-25.13-27.39-30.84-1.57-.63-3.82.44-7.51,1l9,7.14c-1.56,5.75-3,10.94-4.41,16.28-5.84-2.24-4.36-6.35-4.63-9.8-.54-6.83-.58-6.83-7.71-6.33-.87.06-1.77-.5-2.92-.84-.73-7.61-1.46-15.11-2.18-22.6-2.35,2.8-4.08,5.86-3.52,8.41C-3.9,697.39-4.85,709-4.92,720.62c-.12,18.85-.31,37.73-1.34,56.54-.83,15.21-2.7,30.38-4.56,45.52-1.9,15.48-4.28,30.9-6.57,46.33-2.17,14.7-4.74,29.34-6.67,44.07-1.77,13.47-2.37,27.11-4.47,40.52-3.46,22-6.51,44.17-6.24,66.47.19,15.4-1.42,30.5-3.28,45.67a16.53,16.53,0,0,0,.72,7.79c3,7.72,2.83,15.46,1.91,23.54-1.16,10.18-1.39,20.46-2,30.7h-180c-1.39-8.12-3.32-16.19-4-24.37-.74-8.73-.3-17.57-.43-26.4,1.39-3.1,3.7-5.46,3.14-9.67-2.41-18.15-4.31-36.36-6.2-54.57-1.76-16.9-3.71-33.8-4.78-50.75-1.52-23.93-2.38-47.89-3.4-71.85-.49-11.64-1.18-23.3-1-34.94.49-27,1.43-53.9,2.27-80.85.33-10.65.71-21.3,1.32-31.93,1.45-24.94,3.28-49.86,4.54-74.8,1.4-27.61,2.44-55.25,3.45-82.87.3-8.31,0-16.64-.07-25-.09-8.65-.85-17.34-.25-25.94,1-14.61,2.73-29.18,4.41-43.74,2.2-19,4.65-37.92,6.54-53.29,7.69-8.87,13-15,18.35-21.2a13.27,13.27,0,0,1-1.6,7.82c-1.72,3.6-3.92,7-5.12,10.79-.54,1.72.82,4,1.31,6.09,2-.79,4.63-1,5.78-2.49,2.86-3.64,4.95-7.88,7.52-11.77,5.69-8.6,10.58-18,17.45-25.5,9.4-10.33,20.51-18.95,33.78-24.34,11.71-4.76,23.26-9.92,34.88-14.91,2.15-.92,4.57-1.48,6.34-2.87,1.31-1,2.88-3.87,2.38-4.63A9.09,9.09,0,0,0-96,350.49c-1.38-.34-3.11.92-4.72,1.3a168.85,168.85,0,0,0-46.89,19.33c-13.63,8.1-28.25,15-39.61,26.75-2.83,2.92-6.88,4.65-11.19,7.46-.49-2.85-1.06-4.15-.87-5.34,3.12-19,5.32-38.25,12.39-56.43a58.26,58.26,0,0,0,3-12.55c.18-1.2-1.22-3.35-2.39-3.83a4.8,4.8,0,0,0-4.29,1.23,21.25,21.25,0,0,0-4.06,6.73c-5.18,14.4-10.14,28.88-15.2,43.33-1.76,5-3.65,10-5.41,15-1.69,4.82-3.29,9.67-5.41,15.92-1.83-2.58-2.66-3.52-3.25-4.59-8.32-15.17-16.44-30.46-25-45.48a55.85,55.85,0,0,0-9.9-12.41c-4.22-4-5.33-3.4-8.87,3,2.94,3.57,6.19,6.94,8.79,10.75,12.4,18.19,23.18,37.31,30.52,58.11,3.06,8.68,7.43,17.26,6.35,27-1.79,16.2-3.76,32.38-5.28,48.61-1.68,17.89-4.92,35.93-3.95,53.72,1.77,32.73-2.25,65.19-2,97.81.14,19.93-2.1,39.87-3.19,59.81-.28,5.31-.18,10.63-.36,15.95q-1.38,40.91-2.83,81.82c-.27,7.64-.68,15.27-1,22.9-.64,14.3-2.31,28.65-1.71,42.89,1.32,31.6,3.71,63.15,5.81,94.71.73,10.94,1.82,21.86,2.91,32.78.93,9.26,2.13,18.49,3.17,27.73,1.6,14.2,3,28.42,4.89,42.57.46,3.46,2.63,6.68,4,10-7.29-1.16-8.85-.65-8.31,3.81,1.93,15.65,4.32,31.25,6.53,46.87h-118c-.05-19.88-.31-39.77-.1-59.65.17-16,.74-31.95,1.44-47.91.6-13.64,2.53-27.28,2.29-40.88-.91-50-2.75-99.9-3.68-149.85-.48-25.63-.63-51.33.63-76.92,1.44-29,1.19-58-2.18-86.78-3.52-30.07-9-59.91-13.62-89.84-2.09-13.49-3.77-27.06-6.44-40.44-4.75-23.8-10.06-47.49-15.26-71.21-2.34-10.71-4.53-21.5-7.6-32s-3.51-10.37,7.54-11.6c.43-.05.76-.94,1.13-1.43-5.64-5.53-6.15-6.57-3.95-13.66,1.48-4.75,3.68-9.27,5.63-13.86C-363.51,363.38-341,343-321,320.9c6.83-7.52,7.49-10.24.22-19.26-2.75,2-6,3.68-8.25,6.22-6.83,7.71-13.52,15.57-19.81,23.73-10.75,14-21.16,28.19-31.7,42.32-3.64,4.87-7.26,9.75-11.49,15.44-1.12-2.81-1.85-4.28-2.3-5.84a189.22,189.22,0,0,1-6.38-71.22c.35-3.72,1.85-7.89-2.12-10.73-5.24,1-5.63,5-5.61,8.53.1,16.61-.29,33.29,1.08,49.81,1.29,15.54,4.62,30.91,6.86,46.38.29,2-.53,4.11-1.05,7.56-3.92-2.66-6.57-4.53-9.29-6.3-12.8-8.36-25-18-38.6-24.67-14.14-6.9-28.12-13.35-39.85-24.22-6.05-5.6-13.28-10-20.22-14.56-3.17-2.09-6.82-2.93-8.75,1.88,8.75,6.86,17.19,13.7,25.89,20.21,11.18,8.35,22.38,16.7,33.91,24.56,15.36,10.47,30.18,22.41,48.3,27.57,11.17,3.18,16.49,10.1,19.58,20.09,1.37,4.44,2.58,9,3.51,13.51,3,14.64,4.76,29.64,9,43.89,6.35,21.17,9.17,42.92,13.13,64.49,1.92,10.46,3.23,21,4.82,31.57,3.79,25,8.38,49.93,11.15,75,3.28,29.81,3.38,59.75,2.11,89.8-2.22,52.28,1.44,104.51,3,156.76.85,27.94.86,55.93.39,83.87-.41,24.61-2,49.2-3.05,73.8a25.4,25.4,0,0,0,.44,3.95,178.93,178.93,0,0,1-1.4,52.68H-671.32a36.12,36.12,0,0,1-.32-5c.89-13,1.91-25.89,2.75-38.84a34.17,34.17,0,0,0-.57-7.61c-.52-3.12-2.09-6.22-2-9.28.45-11,.93-22,2.27-32.85,5.48-44.23,6.88-89,15.72-132.78,4.21-20.87,7.85-41.87,12.66-62.6,2.38-10.31,6.85-20.13,10.33-30.19,6.31-18.22,12-36.67,19-54.63,8.54-22,18.14-43.55,27.22-65.31,3-7.07,5.56-14.27,8.63-21.28,8.26-18.87,16.79-37.63,25-56.51,7.56-17.3,6.92-35.61,1.38-52.64-4.54-13.95-12.42-27.4-21.34-39.16-6.8-9-17-15.73-26.71-22-6.23-4-14.13-5.6-21.4-7.89-5.57-1.75-8.65-4.52-9.79-10.88-1.93-10.83-5.83-21.17-12.86-30-5.59-7-12.15-9.08-21.45-6.1,10.81-.76,17,5.76,21,14.15a176.33,176.33,0,0,1,10.21,27.92c2,7.38,1.29,7.44,9.14,9.05,16.61,3.4,32,9.28,43.37,22.68,14.79,17.42,26.81,36,28.76,59.82.74,9.1,1.14,18-1.93,26.62-3.81,10.63-8.09,21.11-12.59,31.48-7.14,16.47-14.87,32.68-21.94,49.19-12.16,28.41-24.36,56.82-35.85,85.51-8.14,20.34-15.75,40.94-22.44,61.8a284,284,0,0,0-10,42.72c-5.39,34.49-10.49,69-14.52,103.72-3.49,30.08-5.37,60.35-7.92,90.53a7.83,7.83,0,0,0,.27,3.94c4.22,8.28,2,17,1.73,25.52-.37,10.29-1.21,20.56-1.84,30.85h-128c1.37-8.81,2.53-17.67,4.18-26.43,1.56-8.27,3.31-16.47,3-24.87-5.39-1-6.05,2.18-6.49,5.14-2.28,15.38-4.44,30.77-6.64,46.16h-170c0-3.31-.19-6.63,0-9.93.52-11,1.47-21.94,1.61-32.92.06-5.51-2-11.06-1.84-16.56.34-13.31,1.14-26.62,2.23-39.89,2-24.57,3.65-49.13,2.33-73.81a66.21,66.21,0,0,1,.81-12.95c3.73-25.69,7.19-51.44,11.58-77,3.2-18.65,6.58-37.3,13-55.29,4.13-11.56,7.8-23.52,9.63-35.61,2.19-14.36,7.14-27.68,11.87-41.15,9.28-26.47,22.23-51.23,35.75-75.69a94.73,94.73,0,0,1,11.93-17.1c17.59-19.83,27.43-64,10-91.85-8.59-13.73-19.45-22.25-35.69-23.79-6.11-.58-12.14-1.9-17.74-2.81a23.63,23.63,0,0,1-.51-3.33,10.88,10.88,0,0,1,.43-3c4.8-13.62,1.25-25.44-7.43-36.36-6.71-8.42-15.16-12.74-25.92-11.37a187.55,187.55,0,0,0-18.56,3.73c-9,2.08-17.91,4.36-26.13,6.37-4.11-4.09-7.1-7.22-10.24-10.17-12.71-11.9-20.94-11.77-33.89.51-1.2,1.13-2,2.66-3.21,3.81-7.15,6.95-14.28,13.93-21.58,20.72-3.72,3.46-7.53,4.08-10.89-.81-3.17-4.63-7.72-5.85-13.13-5.28-7.95.83-15.94,1.21-23.88,2.09-9.38,1.05-16.77,5.16-22.34,13.26-8.08,11.74-11.48,24.38-11.06,38.54.83,27.88,0,55.81,10.69,82.55,8.31,20.68,14.1,42.41,23,62.81,10,23,12.09,47.62,17.81,71.49a14.57,14.57,0,0,1,.12,2c2,19-.69,37.8-3.24,56.52-3.87,28.37-8.52,56.63-12.43,85-3.42,24.74-5.89,49.61-9.47,74.33-4.25,29.33-9.26,58.55-13.92,87.83a41.91,41.91,0,0,0-1,7.9c0,1.29,1.56,2.52,2.4,3.78,1.39-1.08,3.06-1.95,4.07-3.3.7-1,.51-2.56.71-3.88,2.37-15.81,4.59-31.65,7.14-47.44,2.71-16.76,6.24-33.4,8.49-50.21,3.81-28.38,6.79-56.88,10.3-85.3,3.87-31.38,7.93-62.74,12-94.1.83-6.51,0-13.32,4.64-19.1,1.08-1.36.42-4.45,0-6.62-3.67-17.92-7.53-35.8-11.21-53.71-1.86-9.07-3.46-18.2-5.36-28.29-6.36,2.58-7.38-2.78-8.92-7.07q-8.79-24.45-17.26-49c-3.35-9.74-8-19.38-9.26-29.41-2.42-20.13-3.22-40.48-3.93-60.76a59,59,0,0,1,3.12-19.61c3.71-11.58,9.86-21.15,23.88-22a130,130,0,0,0,16.8-2.18c7.71-1.52,14.06-1,19.52,6,4.54,5.83,6.74,5.58,12.31.26,7.46-7.11,14.26-14.93,21.72-22a113.5,113.5,0,0,1,14.78-11.69c5-3.38,10.14-2.92,14.5,1.56,5.05,5.21,10,10.51,15.89,16.7,5.77-1.59,12.43-3.47,19.1-5.27,8-2.17,16-5.16,24.13-6.23,22.29-2.92,39.39,16.31,34.47,38.13-.8,3.56-2.1,7-2.93,10.58a62.48,62.48,0,0,0-.77,7.14c7.11,0,13.39-.32,19.63.07,15.29.93,27.52,7.18,34.65,21.4,3.42,6.83,6.58,13.8,9.8,20.74.68,1.47,1.68,3.1,1.57,4.59-1.2,15.88-1.36,32.09-10.22,46.2-4.76,7.57-10.79,14.36-15.28,22.07-8.85,15.19-17.83,30.39-25.26,46.29-8.57,18.35-16.2,37.21-22.94,56.31-4.64,13.11-6.48,27.19-10.6,40.51-8.08,26.08-16.21,52.08-20.83,79.1-5.1,29.89-10.44,59.72-11.64,90.08-.45,11.3.19,22.65,0,34-.49,30.73-6,61.18-3.17,92.18,1.42,15.39-1.63,31.18-2.65,46.8h-148c2.69-16.84,5.38-33.68,8.11-50.82-7.4-1.71-7.46,3-8,6.61C-1139.28,1098.28-1141.21,1113-1143.23,1127.77ZM61.89,382.22l6.66,4.23c-2.17-4.73-4.5-4.52-6.94-4-1.27-4.37-4.8-4.48-8.49-4.27C56,379.53,58.92,380.9,61.89,382.22ZM159,538.5c-5.94,2-7.65,7-9.61,11.87l1.78,1.19c2.55-4.44,5.11-8.87,7.63-13.35q1.82-2.61,3.65-5.2l-1.26-.67Zm-33.25,64.23c4.93-6.39,6.87-13.83,7.54-21.72-3.69,6.89-7.67,13.69-7.33,22-2.91,3.85-5,7.83-.74,12.7Q125.47,609.21,125.73,602.73ZM1078,149.5c-21,8.74-35.84,25.23-51.3,41A109.56,109.56,0,0,0,1044,176.58c7.57-7.58,15.54-14.43,25.07-19.53,3.3-1.77,5.75-5.14,8.62-7.75,3.52-1.53,7-3.17,10.58-4.55s7.5-2.59,11.26-3.87l-.36-2.08c-2.3.19-5-.36-6.84.71C1087.36,142.48,1082.73,146.12,1078,149.5ZM135.26,494.62c-4,4.77-7.72,9.89-12.17,14.22-7.9,7.67-17.29,6.34-22-3.52-5.26-11-8.59-22.41-.94-34,.73-1.11.5-2.86.83-5.11-6.68,1.24-9,5.11-10.39,10.19-3.41,12.53,1,23.56,6.52,34.32,2.27,4.45,6.39,6.47,11.41,6.92,12.1,1.07,22-6.95,27.81-16.19.95-1.49-.73-4.65-1.25-7.1,3.71-3.82,7.31-7.57,6.62-13.67-1.31-11.53-6.13-17.33-17.49-20a75,75,0,0,0-11.82-1.79c-3.49-.24-6.93.38-11.48,4.62,6.87.76,11.66,1.38,16.47,1.8,9.41.83,14.61,5.17,16.32,14.47C134.57,484.66,134.75,489.67,135.26,494.62ZM27.79,535.47c-6.73-1.41-7.43,3.6-8.71,8.11-3.47,12.19-3.71,24.64-2.53,37.09A231.36,231.36,0,0,0,20.25,604c1.29,6.44,5.3,10.52,12,11.63,2.94.49,5.84,1.31,8.79,1.75C71.75,622,92.26,592.54,88.64,574c-4.11,7.64-8.14,16.59-13.46,24.68C65.63,613.2,53.74,617,37.38,611.76c-7.93-2.56-12.65-6.92-13.87-15-1.08-7.22-1.81-14.5-3-21.71-2.1-13.22,1.51-25.68,4.86-38.18.18-.64,1.55-1,2.32-1.53l8.77-11.51C28.11,527,27.82,527.4,27.79,535.47ZM-704.44,461c-7,3-12.21.24-16.5-5.33-2.24-2.91-4.21-6.13-6.89-8.56-11.94-10.8-21.69-12-32.87-2.94-5.4,4.39-10.38,9.31-15.46,14.08-6.91,6.48-10.24,14.51-10.76,24-.43,8-1.24,15.95-2.3,23.87-.91,6.71-3.18,8-9.53,6-2.49-.81-4.65-2.64-7.15-3.4-3.39-1-7-2.2-10.43-2-7.74.46-14.79,8.57-16.08,17.89-.55,4-.47,8-.79,12-1.95,24.63,2.07,48.22,11.32,71.16,8.37,20.75,15.09,42,15,64.82,0,1.65,1.58,3.27,2.24,5a26.88,26.88,0,0,1,2,6.26c.84,7.22,1.15,14.51,2.13,21.71,1.87,13.84,4.58,27.58,6,41.46,1.61,16.17,2.5,32.42,3.1,48.67,1.08,28.91,1.81,57.84,2.46,86.78.18,8.3-.07,16.64-.71,24.92-1.61,20.89-3.48,41.77-5.41,62.63-.73,8-1.63,15.89-2.93,23.76-4.08,24.63-8.43,49.22-12.54,73.84-.37,2.24.3,4.65.49,7l2.38.45c.94-1.76,2.34-3.43,2.71-5.31,1-4.89,1.32-9.9,2.21-14.8,4.88-26.84,11.44-53.38,13.74-80.66a43.48,43.48,0,0,1,2.88-11.55c1.16-3.09,3.57-4.41,7.25-3.05s7.51,1.79,11.18,3a9.71,9.71,0,0,1,4.79,2.89,46.61,46.61,0,0,1,4.7,8.65c2.75,6.22,3.88,6.79,10.61,4.57,1.21-.4,2.39-.88,3.41-1.26,6.94,7.38,6.86,7.13,16.87,4,2.36-.74,5.63.4,8.15,1.46,3.91,1.66,7,2.05,9.48-3.39-5.36.49-8.62-1.77-10.69-6.51-1.64-3.74-4.9-4.16-8.21-1.44-2.24,1.83-4.5,3.63-7.79,6.29-2.67-5.92-4.87-10.8-7.31-16.24l-10.5,6.25c-1.9-4.35-3.32-8-5.08-11.52-2.53-5-4.38-5.61-9.52-3.33a32.3,32.3,0,0,0-3.67,2.15l-12.54-9c0-4.65-.27-9.31,0-13.93,2.52-38.59,3.11-77.2.51-115.81-1.59-23.56-3.46-47.11-5.08-70.68-.24-3.42.17-6.88.3-10.84,7.27.66,10.51,5.18,14.39,8.57,8.37,7.32,8.33,7.35,18,2.09.49-.26,1.28.06,2.07.12.67.6,1.66,1.11,2.11,1.93,4.55,8.34,10.09,14.82,21,12.3a7.61,7.61,0,0,1,3.89.65c6.27,2.13,12,.58,17-3.12a12.58,12.58,0,0,1,11.25-2.15,60.29,60.29,0,0,0,7,.75c-7.58-7.57-15.28-7.26-22.12-3-6.66,4.13-12.73.93-19.06,1.28-8.5.46-11.57-5.13-15.85-10-3-3.38-5.2-7.89-10.73-7.8-.89.8-1.66,1.41-2.35,2.1-5.64,5.63-6.41,5.63-11.84,0-3.21-3.35-6.21-6.95-9.7-10-5.22-4.53-9.13-9.77-10-16.7-1.82-14.16-4-28.33-4.88-42.56-1.27-20.89-5.38-41.25-14.3-59.9-6.31-13.17-11-26.75-12.92-40.68-2-15-.33-30.5-.17-45.79a10.69,10.69,0,0,1,1.1-3.82c2.53-6,6-7.87,12.65-6.36,3.88.88,7.64,2.29,11.47,3.39,5.48,1.58,10.95,2.31,17.36-.31,0-6-.21-11.95.05-17.85.49-11.28-.23-23.15,7.28-32.54a157.13,157.13,0,0,1,19.66-19.8c5.87-5.1,12.31-5.08,18.22-.31a95,95,0,0,1,13.2,13.25c6.78,8.17,13.18,9.1,21,2.37,11.11-.54,17.17-9.13,24.36-15.93ZM1266.13,75.37c3.26-6.86,5.71-12.25,8.36-17.54,3.58-7.13,7.32-14.17,11-21.26,2.58-5,5-10.13,7.67-15.12,5.48-10.27,11.55-20.26,16.48-30.79,6-12.77,10.67-26.19,5.75-40.45-3.45-10-6.65-20.53-12.38-29.22-9.41-14.25-29.22-18.22-47.9-11.76-12.31,4.25-21.62,10.84-21.08,25.66,0,.76-1,1.55-2.06,3.06-9.49-3.31-15.7-13.34-27.17-12.94-10.2.36-20.36.49-28,7.95-7.16,7-14.29,14.55-15,25.66h6c-1.66,4.17-3.16,7.8-4.56,11.47-2.67,7-3,14.91,2.73,19.42,8.57,6.76,17.34,13,23.84,22a4,4,0,0,0,.78.62c10.17,8,20.38,16,30.5,24a45.46,45.46,0,0,1,4.87,4.94c7.79,8.43,12.73,18.56,17.25,28.94,3.52,8.08,9.8,10.17,18,6.34A17.64,17.64,0,0,1,1266.13,75.37Zm39.65,999.87c5.84-1.87,5.68-5.52,6.41-8.49,5.66-23.31,11.08-46.68,17-69.94,10-39.74,19-79.69,23.65-120.48,1.84-16.21,3.33-32.47,5.33-48.66,1.38-11.22,3.74-22.33,5-33.56,2.33-21.18,4.66-42.38,6.1-63.63,1.66-24.58,3.08-49.22,3.3-73.85.22-25.62-1.23-51.26-1.73-76.89a377.22,377.22,0,0,0-15.11-100.23c-2.55-8.6-3.8-17.57-6.07-26.26-4.18-16.09-8.61-32.12-13.14-48.12-.5-1.77-2.27-3.18-3.78-5.21-.82,1.7-1.48,2.42-1.33,2.83,8,20.53,11.44,42.31,17.43,63.37A548.85,548.85,0,0,1,1365.12,548c1.62,12.83,1.62,25.9,2,38.87.64,24.62,1.55,49.26,1.3,73.89-.18,16.93-2.67,33.82-3.17,50.76-1,35-5.39,69.69-10.41,104.3-2.2,15.15-4.56,30.3-6.12,45.52-3.63,35.53-10,70.59-18,105.34-7.58,32.77-15.75,65.4-23.58,98.11C1306.37,1067.81,1306.3,1070.94,1305.78,1075.24ZM1153.64,168.17c3.83-2.68,6.11-4.61,8.68-6,2.24-1.19,4.87-2.56,7.23-2.41a117,117,0,0,1,15.71,2.51c16.57,3.4,27.42,14.84,35.63,28.22,3.94,6.43,4.49,15.22,5.45,23.08.38,3.14-1.66,7.09-3.68,9.88a54.72,54.72,0,0,1-9.82,9.89c-9.6,7.81-16.64,7.1-24.9-2.11-1.55-1.74-3-3.57-4.66-5.22-10.78-10.72-30.27-13.81-42.39-4.82-18.32,13.6-31.58,30.82-34.74,54.73-3.39,25.64,8.37,42.62,30.16,54,8,4.14,15.65,8.74,23.53,13,13.39,7.26,26.47,15.28,41.73,18.24,1.7.32,3.52,0,7.12,0-2.27-2-3-3.16-4-3.48-17.61-5.6-33.14-15.42-49.16-24.22-6.39-3.51-12.37-7.85-19-10.92-23.13-10.76-30.68-27.75-26.79-53,2.61-17,13.46-29.4,26.6-39.66s29.11-8.8,40.6,3c3,3.09,5.86,6.37,8.92,9.43,4.8,4.8,10.23,5.62,16.44,2.71,8.59-4,16.08-9.17,21.71-17.08,3-4.21,5.86-8.29,5.39-13.55-1.46-16.22-5.3-31.35-18.58-42.64a76.7,76.7,0,0,0-30.77-15.74c-10.11-2.68-10.65-4-9.24-14.07a26.62,26.62,0,0,0-3.78-18c-9.76-16.65-38.1-20.62-52-16a16.55,16.55,0,0,0-6.07,3.38c-6.42,6-12.31,12.48-10.81,23,4.77-1.22,4.24-4.8,5.35-7.31,2.92-6.62,6.7-12.93,14.49-13.78,14.54-1.57,28.63-.21,40.23,10.3,7.89,7.16,10,15.53,5.51,25.2a11.94,11.94,0,0,1-6.2,5.45c-9.63,3.64-19.77,6.06-29.12,10.27-6.18,2.79-11.46,7.7-16.84,12-1.41,1.13-1.69,3.67-2.49,5.56a12.09,12.09,0,0,0,6.25-3.69c8-7.43,17.46-12,27.68-15.4C1147.74,161.36,1151.49,161.4,1153.64,168.17Zm173,226.44-.94-1.86c-3.62,2.11-7.87,3.57-10.75,6.42-16.06,15.88-35.51,16.35-55.83,12.75a22.39,22.39,0,0,1-9.68-4.67c-11.63-9.52-10.63-17.7,2.71-24.62,17.83-9.26,31.53-23.21,43.59-38.88a32.79,32.79,0,0,0,5.62-11.63c6.15-24.21,7.35-48.74,2.4-73.26-2.63-13-16.84-20.5-29.8-16.75-4.8,1.39-9.55,2.92-14.38,4.17a56.64,56.64,0,0,1-7.2.84c-.5-8.32,6-12.47,9.85-19.39-9.16,2.49-8.8,12-16.23,15.65-.5-3.88-1.52-7.11-1.21-10.21,2.53-25.55,22.36-54.24,56.29-51.51,5.26.43,10.58.06,13.4.06l12.3-7.23,7.58-9.91a24.28,24.28,0,0,1-1.85-2.73c-3.78-7.17-2.88-18.46,1.8-23.43,6.24-6.64,12.62-7.37,22.72-2.78,9.15,4.16,17.81,8.87,24,17.25,2,2.65,5,4.51,9,8-6.44-14.86-25.78-32.11-37.66-34.76a12.34,12.34,0,0,0-3-.25c-10.36.23-21.51,11-22.36,21.55-.45,5.54-.85,11.08-1.27,16.63h-10.45c.56,3.44,1,6.14,1.53,9.31-7.32.78-14,.87-20.48,2.34-8.68,2-18.71,2.93-25.34,8-18.84,14.43-32.17,32.64-29.83,58.52,1.1,12.17,6.8,16.2,18.39,11.7,5.25-2,10.26-4.69,15.54-6.6,2.67-1,5.89-1.78,8.55-1.2,10,2.19,17.69,11.87,18.66,22.15a170.16,170.16,0,0,1-5,59.39,53.3,53.3,0,0,1-8.49,17.75,106.13,106.13,0,0,1-17.14,18.05c-11.14,9.33-22.66,18.61-39,14.18,1.74,7.42,2.48,14.39,5,20.61,3.7,9,8.63,17.43,19.4,19.86C1285.08,424.41,1307.89,415.54,1326.6,394.61ZM1041.45,623.14l-2.24-.51a21.19,21.19,0,0,0-2.15,4.21c-3.37,13.53-7.47,26.94-9.75,40.65a459,459,0,0,0-5.12,101.28c.41,7.27,1.19,14.53,1.43,21.8.39,11.91.1,23.85.81,35.74.64,10.86,2.15,21.67,3.43,32.48.74,6.25,1.28,12.58,2.78,18.66,3.16,12.84,7.36,25.42,10.27,38.3,3.86,17.08,7.22,34.3,10.21,51.55,3.28,18.84,4.87,38,9.12,56.64,3.3,14.48,9.33,28.38,14.7,42.33,1.12,2.91,4.66,4.9,7.08,7.31l1.83-1.19c-1-3.38-1.74-6.83-2.91-10.15-7.73-22-14.81-44-18.09-67.33-5-35.54-10.31-71.06-22.06-105.31-3.94-11.51-5.8-24-7-36.15-2.31-23.79-4-47.68-4.93-71.56-.91-23.59-1-47.23-.56-70.83.28-13.24,2.46-26.45,3.83-39.67a35.84,35.84,0,0,1,1-3.86c2.78-12.32,5.63-24.63,8.24-37C1041.88,628.18,1041.45,625.61,1041.45,623.14Zm376-714.29c-.84-11-2.43-20.1-2-29.09.66-14.57,2.85-29.07,3.94-43.64.45-5.91.54-12.09-.72-17.83-1-4.79-1.75-11.4-8.55-12.07-6.31-.62-10.22,3.93-13.63,8.59a17.58,17.58,0,0,0-1.3,2.69c-3.73,7.51-6.21,15.26-6.26,23.84-.07,9.38-2.07,10.65-11.8,9-2.62-.44-5.39-1.67-7.82-1.19a98.85,98.85,0,0,0-16.82,4.82c-4.69,1.84-3.07,6.76-3.89,10.5a49.09,49.09,0,0,1-2.89,8.46c-4.39,10.49-2,16.29,7.91,22,9.51,5.54,20.12,6.68,30.45,8.79C1395-93.95,1406.2-92.8,1417.47-91.15ZM-1021.11,590l-1.61-2.17c-2.31,1.4-5,2.44-6.87,4.26-5.78,5.5-12,10.75-16.73,17.08-9.59,12.88-17.64,26.77-18.23,43.43a18.44,18.44,0,0,0,3.21,10.9c4.13,5.55,9.4,10.25,14.15,15.35,9.45,10.14,21.33,11.16,34,9.09,2.95-.48,5.82-1.46,8.78-1.86,13-1.76,24.6-5.75,30.57-19,.94-2.07,2.89-3.66,4.12-5.63,7.67-12.26,8.89-25.8,2.3-38.06s-15.47-23.17-27.44-31.14c-5.19-3.45-9.74-7.86-14.72-11.63-1.59-1.2-3.65-1.76-6.73-3.18,1.27,10.28,6.25,16.41,13.49,20,12.51,6.2,20.15,17.22,28.37,27.5,7.21,9,7.39,20.27,2.51,30.21-5.87,12-13.32,23.37-29.32,23.32-1.61,0-3.23.75-4.83,1.18-18.37,5-33.65,1.25-46.57-13.88-6.72-7.87-8.85-14.87-5.2-24.38,6.78-17.69,15.72-33.76,31.08-45.55C-1024.63,594.23-1023,592-1021.11,590Zm2065.75,5,1.83.5c.93-1.56,2.23-3,2.73-4.72,9.85-33.46,19.25-67.07,29.52-100.4,7.25-23.52,11.28-48,21.55-70.6,5.22-11.46,10.58-22.89,16.55-34,2.94-5.44,5.53-5.24,10.61-2q8.65,5.58,17.64,10.63c8.27,4.64,16.83,7.82,26.62,4.8,2.79-.86,6-.72,8.93-.74,9.36-.07,16.8-3.78,22-11.56a148.21,148.21,0,0,0,8.35-13.59c1.09-2.08,1-4.78,1.43-7.2a8.87,8.87,0,0,0-4.16,5.38c-4.4,11.82-11.46,20.15-25.34,20.23a49.53,49.53,0,0,0-10.83,1.69c-9.63,2.26-17.27-3.57-25.8-5.9-6.06-1.65-5.9-7.44-8.08-10.47-3.88.24-7.18,1.25-10,.46-8.66-2.45-8.93-2.65-14.22,4.07-12,15.22-16.89,33.78-23.51,51.39-5.37,14.24-8.47,29.33-12.64,44-1.72,6-3.72,12-5.39,18-5.4,19.5-10.51,39.09-16.12,58.54-3.23,11.17-7.32,22.09-10.78,33.2C1044.78,589.44,1044.92,592.32,1044.64,595.05Zm432.8-908c5.35-7,1.31-11.69-1.13-16.5-2.08-4.09-5-5-8.86-2.15-10.86,8.06-18.61,17.81-18.62,32.22,0,4.08-.94,8.17-1.46,12.32-2.29-.22-3.33-.11-4.21-.44-12.4-4.7-25.11,4.69-29.64,16.95-3.58,9.72.65,17.45,10.81,19a72.42,72.42,0,0,0,14.89,1.09c10.6-.57,20.88,1.34,31.25,2.82,4.06.58,8.17.76,12.15,1.12-2.29-21.54,1.5-42-1.88-62.39-5.49,2.74-5.49,2.74-1.4,12.31-1.24,3.41-2.93,6.74-3.58,10.26-.71,3.86-.41,7.9-.64,11.85-.2,3.33-.46,6.64-.78,9.95-.81,8.29-1.11,9.11-9.4,9.92-14.64,1.44-28.93-1.67-43.1-4.86-1.81-.41-3.93-3.7-4.23-5.88-.86-6.41,1.78-11.83,7.2-15.39,5.1-3.36,10-2.38,14.59,1.63,2,1.78,17.83,4.88,20.63,4.35.25-.05.43-.48,1.38-1.61-1.39-3.36-2.89-7.3-4.63-11.13-5-11.09-2.52-28.13,5.36-35.52,4.42-4.14,7-3.91,10.29,1.17C1474-319.42,1475.32-316.77,1477.44-313ZM-702.33,574c-7.61,2.36-10.37,6.38-12.5,10.77-5.37,11.07-10.86,22.1-15.59,33.45a77.83,77.83,0,0,0-4.73,18.3c-1.76,11.74,3.15,18.91,14.91,20.61,15.49,2.25,31,3.29,46.61-.71,25-6.42,24.19-11.46,27.62-31.83.54-3.2.09-6.66-.36-9.93-.9-6.63-4.55-11.75-9.74-15.72q-15-11.51-30.29-22.73c-1.48-1.08-3.65-1.22-7.21-2.33,3.37,7.89,7.29,12.52,12.54,16.29,7.29,5.24,14.28,10.91,21.63,16,4.5,3.15,7.16,7.36,7.12,12.51a102.53,102.53,0,0,1-2.11,18.62c-1.2,6.14-5.68,9.12-11.61,11-16.6,5.3-33.52,4.85-50.42,3.11-12-1.23-15.26-6.39-13-18.51a42.89,42.89,0,0,1,3-10.53c6.27-13.2,12.83-26.27,19.31-39.37C-705.93,580.68-704.6,578.32-702.33,574ZM-57.69,431.4A33.69,33.69,0,0,0-70.2,445.72c-6,12.55-6.41,25.67-3.13,38.9,2,8.32,5.17,16.37,7.33,24.67,5.8,22.29,18,41.5,30.55,60.13a118.57,118.57,0,0,1,16.24,34.91c2.26,8,4.24,16,3.79,24.49-.22,4,.07,8.87,7.59,9.15-.45-13.37.59-26.18-3.23-38.87-4.19-13.92-11.64-26-19.64-37.92-5.91-8.81-11.88-17.71-16.49-27.23-6.07-12.55-10.76-25.78-16.19-38.65-1.8-4.27-5-8.12-6-12.52-4-17.82-5.05-35.23,11.34-48.4C-57.83,434.24-57.92,433.75-57.69,431.4ZM-695.5,1032.59c-15.74-8.77-15.74-8.77-27.8,2.26-10.39-3.45-10.39-3.45-18.86,12.43-7.6-4.48-11.32,2.25-16.06,6.78-3.35-3.09-6.08-6-9.18-8.37s-5.77-.7-7.8,1.74c-2.51,3-.85,6.08,1.53,7.77,5.56,4,11.52,7.34,17.39,10.86.76.46,1.89.31,3.21.5l5.37-6.76,9.32,1.11,7.19-18.35,11.06,4.1c3.23-5.08,6.16-9.68,9.08-14.25,9.56,2.78,14.66,12.33,24.43,11.89.75-1.17,1.73-2,1.73-2.83,0-4.12,1.38-9.58-.71-12.08C-689.34,1024.92-691.64,1032.74-695.5,1032.59Zm-24.36,67c3.77-4.82,4.07-11.53,10.56-13.5,8,2.44,12.9,11.68,22.4,11,4.67-9.15,4.52-11.49-1.09-16.32l-7.76,5.18c-14.12-9.58-15.57-9.47-27.46,1.8a16.48,16.48,0,0,1-2.78-.37c-7.7-2.37-8.89-1.87-12.13,5.19-1.21,2.63-2.46,5.25-4,8.46-8.33-5.62-11.43,1.47-15.67,6.48-3.39-3.19-6.08-6.07-9.13-8.49-2.8-2.22-5.7-1.29-8,1.08s-1.37,5.37.73,7c5.46,4.15,11.27,7.86,17.05,11.58,1,.64,2.51.51,4,.78l5.41-6.71,9.35,1.41c2.36-6.24,4.54-12,6.9-18.28ZM-626.06,601a23.4,23.4,0,0,0,19.54-11.11,124.85,124.85,0,0,0,7.37-13c7.38-15-2.94-27.07-13.06-30.7-4.35-1.56-9.06-2.13-13.47-3.58-5.32-1.75-9.42.16-12.14,4.32-7.17,11-12.5,22.82-11.11,36.42C-647.8,594.52-639.87,601.19-626.06,601ZM79.47,449c-1.6-5.47-3.85-12.75-5.84-20.1-2.21-8.13-8.17-13.06-15.2-16.09-4.28-1.84-9.67-1.47-14.56-1.49-4.58,0-5.35,4.26-7,7.42a12.16,12.16,0,0,1-2,2.16c-10.11,11.05-8.06,31.34,4.52,40.05,4.84,3.36,10.35,6.56,16,7.77C70,471.85,78.78,466.62,79.47,449ZM-747.94,862.69c5.09-4.16,9.43-7.76,13.83-11.29,3.53-2.82,7.09-3.61,10.63.07s7.38,4,11.76,1.58a5.63,5.63,0,0,1,3.83-.68c6.62,1.88,9.84-2,12.71-7a45.4,45.4,0,0,1,4.71-6.44c4.69-5.53,5.45-5.58,12.23-1.51,5.14,3.09,6.33,2.81,9.67-2.05,2-2.86,4-5.65,5.85-8.17l11.72,4.21c2.83-8.51,2.21-16.42,1.63-24.24-.1-1.25-2.43-2.33-3.73-3.49-.61,1.67-2.09,3.59-1.68,4.95,1.18,3.9,2.62,7.55-1,11.74-11.85-6.37-12.38,6.77-18,11.24a16.16,16.16,0,0,1-3.3-.66c-8.8-4.08-10.84-3.68-16.91,3.49-1.07,1.27-2.2,2.49-3.25,3.79-3.12,3.84-5.67,8.23-11.88,7.64-4.76-.45-9.74,2.15-14.09-2.49-1.39-1.49-5.22-1.92-7.4-1.2a58.26,58.26,0,0,0-23.81,15.42,27.11,27.11,0,0,0,2.63,2.77C-750.72,861.19-749.52,861.77-747.94,862.69Zm-32.55-318.76c7,3.08,7,3.08,9.27,7.72-3.45,2.53-7.88,4.35-10,7.65-5.52,8.41-9,17.68-7.36,28.21,1.57,10,2.9,11.38,13.13,12.7,2.3.3,4.59.71,6.89,1.06,9.5,1.46,15.53-2.13,18.4-11,4.8-14.76-5-41.58-18.22-49.81C-773.17,537.55-774.75,537.93-780.49,543.93Zm-169.89,17,1.08,1.8a43.44,43.44,0,0,1,6.37-1.32c6.27-.37,12.67-1.4,18.78-.52,12.23,1.76,18.7,17.46,11.17,27.22-5.3,6.87-12.3,12.22-21.14,14.26-5.34,1.23-7.83-.12-8.47-5.48-1.1-9.09-1.12-18.09,8.75-24.17-2.26-1-5-2-5.88-1.16-2.55,2.43-5.73,5.44-6.18,8.57a76.75,76.75,0,0,0-.23,20.81c1.07,7.89,5.13,10,13,7.35a48.44,48.44,0,0,0,24.91-19.16c8.25-12.18,2.13-31.1-11.47-34.43-7.12-1.75-15.13-.69-22.59.25C-945.21,555.28-947.71,558.81-950.38,560.9ZM-713.25,510l-.52-.05c0-1.66,0-3.32,0-5-.12-8.92-2.7-12.68-11-15.36-6.07-2-12.1-2.61-18.59-.89-5.83,1.55-8.9,4.87-11.22,10.11-5.71,12.85-1,26,11.06,35.88,10.54,8.61,24.76,4.26,28.2-8.94C-714,520.67-713.9,515.26-713.25,510ZM-673,490.11c-5.75-3.54-8-2.15-10.12,1.19-8.16,13.11-10.69,27.75-11.87,42.78a9.84,9.84,0,0,0,.48,2.95c2.32,10.07,10.68,14.84,20.47,11.71a30.47,30.47,0,0,0,20.8-32.66c-1.1-8.81-7.47-17.14-14.51-18.93-3.5,4.29.63,6.52,2.57,9.28,9.6,13.65,7.08,27.1-6.55,34.74-11.11,6.22-18.68,2.23-18-10.52.46-8.85,3.21-17.57,4.94-26.35C-683.61,498.2-681.26,492.88-673,490.11Zm649.09-30.79c3.24-2,5.76-4.94,8.28-4.94,9.81,0,17.65,2.94,21.85,13.56a44.43,44.43,0,0,1,2.63,22.33c-1.08,9.05-10.55,13.29-18.71,8.79l-4.92-2.7c-.44,1.4-.89,2.07-.78,2.63a5,5,0,0,0,1.18,2.57c6.68,6.08,14.11,4.3,21.48,1.78,6.42-2.19,10.24-7.23,9.74-13.62a164.77,164.77,0,0,0-4.72-27.31c-1.55-6.16-6.78-9.73-12.63-11.84-4.32-1.56-8.8-2.69-13.23-3.93-4.21-1.19-7.33.48-8.82,4.37C-23.45,453.41-23.42,456.16-23.89,459.32ZM-1038.35,504.1c-2.52,3.27-4.14,6.11-6.43,8.21-8.57,7.86-9.54,17.85-8.19,28.39.75,5.91,4.84,9.34,10.44,10.68,11.89,2.84,24.27-4.1,26.36-16.11C-1013.34,519-1015.6,502.41-1038.35,504.1Zm-77.24,52.21c1.06,6.88,1.79,13.84,3.34,20.6.81,3.54,2.79,6.73,7.88,5.26,15.91-4.58,28.88-27.29,24.44-43.15-2.86-10.19-19.13-16.62-27.94-10.91a8,8,0,0,0-2.78,3.87C-1113.48,539.79-1116.37,547.62-1115.59,556.31Zm161.24-17.39c-1.1-5.55-1.81-11.2-3.37-16.62-2.95-10.26-13-14.95-22.91-10.94-4.82,2-9.14,4.14-7.27,10.95.65,2.36-1,5.25-.78,7.84a204.12,204.12,0,0,0,2.49,20.65,8.16,8.16,0,0,0,4.39,5.07c6.58,2.66,13.34,1.55,19.17-1.93C-957.35,550.78-953.52,546-954.35,538.92ZM-1013,932.32c-5-1.87-9.56-5.21-13.38-4.51-3.56.66-6.33,5.6-9.8,9-10.09-.55-11.71.62-14.78,10.84-1.14,3.78-2.68,7.47-3.55,11.31-.3,1.32.85,3,1.7,5.58,7-18.38,8.32-20.48,12.71-20.71l7.47,5.17c1-3,1.69-5.12,2.37-7.25,3-9.38,4.62-10,13.27-5.24a15.69,15.69,0,0,0,7.19,2.19c3.63,0,7.26-1,11.91-1.76,6.54-7.83,7.43-11.34,4-18.17-2.56,4.65-.07,12.3-8.17,14.18l-4.66-11.46-2.15.21Zm-97.77,92.53c7.87-4.84,12.74-2.82,17.2,1.38,2.41,2.28,5.37,3.46,8,.89,4.6-4.51,8.78-2.95,13.49-.28a19.39,19.39,0,0,0,8.48,2.64,16.63,16.63,0,0,1,12.22,5.68,28.25,28.25,0,0,0,7.13,5.37c7.32,4,14.54,1.59,19.77-6.67-2.31.28-4.41.08-6.12.81-8.19,3.49-14.78,1.9-20.24-5.26-2.53-3.31-6-4.65-10.5-4.52-3.44.1-7.55-.7-10.28-2.63-5.18-3.66-9.55-5.49-15.16-.87-2.39,2-21.58-6.39-22.75-9.4-.12-.3-.06-.67-.17-1-.53-1.56-1.1-3.12-1.65-4.67l-2.08.49C-1112.65,1012.1-1111.87,1017.37-1110.76,1024.85ZM33.48,516c8.76-2.34,15.56-4.9,22.58-5.87,12.11-1.68,22.22,5.79,25.12,17.7,2.67,11,5.09,22,7.75,32.9.24,1,1.41,1.79,2.79,3.45,3.29-7.07,2.28-13,.46-19.13-2-6.65-4.18-13.32-5.3-20.14-1.53-9.36-6.84-15-15.46-17.55a39.82,39.82,0,0,0-27.29,1.52C40.73,510.28,37.86,513,33.48,516ZM566.84,711.57c6.59-9.28,6-21.17,14.12-29.07a28.57,28.57,0,0,1-1,11.45c-2.21,7.77-2.08,8.23,6,12.14,2.63-11.54,5.25-23.05,8-35.24-5,.34-9.25-3.58-13.38,1.57-8.76,10.93-11.65,24.18-15.36,37.14C565.08,709.89,565.92,710.49,566.84,711.57ZM-963.62,761.25c11.22-.68,12.79-3.57,7.71-13.17-9.47-.36-12.11,7.06-15,14.25l-8.89-5.71-17.54,19.81,4.88,4.14,14.19-13.52,8.92,9.07C-967.08,770.22-965.47,766-963.62,761.25Zm-125.54,66c.22,2.84.4,5.68.67,8.51.39,4.15,2.22,6.82,6.88,6.74,3.59-.06,7.61,1.2,10.69,0,5.59-2.23,10.1-1.29,15,1.45,7,3.87,14.19,5.3,21.64.71,2.17-1.34,5-2.82,7.25-2.49s4.19,2.83,7.07,5c-.53-2.64-.75-4.26-1.2-5.81-.53-1.8-1.26-3.54-1.79-5-6.15-1.94-10.22,1.69-14.48,3.87-6.85,3.52-12.89,3.62-19.52-.86a18.22,18.22,0,0,0-11.15-2.54C-1079.25,837.87-1082.45,836.59-1089.16,827.28ZM1020.63,194.81c-13.64,8.84-39.32,44.69-51.15,71.12-.66,1.48-.09,3.5-.09,5.27l1.89.68C978.11,258.52,984,244.55,992,232,1000.21,219.19,1010.51,207.78,1020.63,194.81Zm-2095.81,881.67-.81,2c4.59,1.44,9.24,2.72,13.75,4.35a55.79,55.79,0,0,1,9.53,4.35c2.54,1.5,4.51,3.94,7,5.49,8.15,5,15.52,3,21.88-6.19-2.45.39-4.49.31-6.16,1.06-8.43,3.74-15.31,2.36-21.07-5.18a11.6,11.6,0,0,0-6.57-4C-1063.39,1077.28-1069.31,1077-1075.18,1076.48ZM943.75,333l2.09.72c3.16-9.13,6-18.39,9.55-27.36,3.7-9.34,8.11-18.41,12.2-27.61l-2.05-1c-5.51,7.11-8.44,15.9-11.69,24C949.81,311.83,944.23,321.76,943.75,333ZM541.19,749.53c7.37-1.18,6.41-7.65,9.1-11.26s7.2-6.7,7-14.27C550.73,732.91,540.83,737.37,541.19,749.53ZM-14.65,422.86c-4.51-.39-8.37-.41-12.1-1.13-4-.76-7.8-2.22-11.69-.19l18.21,9.24Zm6,221-2.13.39c1,4,2.16,7.91,2.95,11.92.75,3.84,1.12,7.74,2,13.86C-3.38,658.24-4.24,652.1-8.66,643.86ZM171.19,513.37c5.25-11.9,6-19.63,3.71-29.81C173.62,493.85,172.4,503.61,171.19,513.37Zm500.86,282c2-10.43,1.4-14.62-2.52-21.9A37.77,37.77,0,0,0,672.05,795.34ZM112.91,413l19.47,3.42C126.14,411,124.29,410.85,112.91,413Zm931.94,188.08c-6.11,8.7-6.37,10.42-1.93,15.5C1045.16,611.48,1046.61,607,1044.85,601.09ZM175.49,453.87l-2.36-.1c.26,2.51.65,5,.75,7.53a70.39,70.39,0,0,1-.17,7.82c-.17,2.29-1.69,4.9,1.78,6.38Zm-197.11,24.2-3.1.63c.12,5.18.11,10.4,6,14Q-20.16,485.39-21.62,478.07ZM97.93,416.25c-7.05,1.07-9.86-4.64-14-9.44C84.07,417.78,85.16,418.47,97.93,416.25ZM121.4,660h1.48V642.75H121.4Zm-1216.06,416.71c6.06,6.11,6.06,6.11,11,0ZM121.63,633.48c.72-3,4.75-5.89,0-10Zm-42.38-240L77.37,395,82,400.5l1.58-1.37ZM138.47,567l2,1,2.83-5.69c-.64-.34-1.29-.67-1.94-1Zm7.38-144.47-.76.87a10.25,10.25,0,0,0,2,1.85,16.81,16.81,0,0,0,3,1l.52-1.26ZM911.57,541.13c0,.71,0,1.43.07,2.15l4.18-.81c-.26-.54-.48-1.5-.79-1.53A21.19,21.19,0,0,0,911.57,541.13ZM562.3,719.27c-.25-.48-.49-1-.73-1.45-.52.32-1.22.53-1.47,1-.15.28.42.94.67,1.43Zm-522.17-343,0,.55h4.42c0-.19,0-.37,0-.55Z" transform="translate(1405.16 340.23)"/><path class="cls-1" d="M340.48,1127.77h-116c-.59-4.27-1.66-8.54-1.68-12.82-.14-30.27-.22-60.55,0-90.82.12-16.64.76-33.28,1.32-49.91.48-14.28,2-28.58,1.56-42.81a415,415,0,0,1,2.76-60.75c.83-7.34,4.52-12.39,10.25-16.22,3.3-2.21,7.18-3.53,10.55-5.65,7.28-4.6,15-8.8,21.47-14.36,11.71-10,15.54-27.68,10.13-41.9a24.15,24.15,0,0,0-16.13-15.23c-6.78-2-13.87-3-21.47-4.54-.09-2-.58-4.67-.28-7.22,1.92-16.19,3.9-32.37,6.06-48.52,3.69-27.69,7.7-55.33,11.26-83,2.28-17.8,3.69-35.7,6-53.49,3.23-24.57,3.34-48.55-10.35-70.58a4.65,4.65,0,0,1-.84-1.81c-.3-3.06-.49-6.15-.74-9.59-1.95-1.67-5.38-3.52-7.14-6.39a80,80,0,0,1-7-15.4c-5.16-14.74-9.78-29.68-15-44.41-7.47-21.13-.35-38.46,13.6-54.05,1.69-1.89,4.3-3.13,6.7-4.16,8.62-3.69,16.67-2.52,24.7,2.42,6.67,4.12,8,3.38,11.85-3.06,1.35-2.25,2.64-4.7,4.54-6.43,8.87-8,17.48-16.46,27-23.61,17.37-13,36.95-8.18,47,10.7,2.82,5.27,5.93,10.39,8.79,15.64,2.13,3.91,5,5,9.11,3.06,1.5-.71,3.16-1.09,4.67-1.77,12.3-5.53,24.16-3.72,35.4,2.72,22.57,12.94,35.83,33,42.75,57.6,2.39,8.5,3.45,17.37.09,25.54A139,139,0,0,1,448,482.4c-9,13.18-19,25.65-28.57,38.44-4.17,5.57-9,10.79-12.28,16.87a141,141,0,0,1-19.85,28.6A33.79,33.79,0,0,0,380,578c-4.15,13-7.85,26.11-11.15,39.32-4.59,18.38-8.35,37-13.09,55.31-2.35,9.09-7.94,10.42-16.31,4.67,4.09-5.25,13.76-4.29,14.41-13.49.51-7.23-.08-13.88-5-19.67l6.89-8.42c-3.19-.44-5.18-1.25-6.93-.88-13,2.74-24.69,7.31-31.79,19.88-6.92,12.25-5.72,19.94,4.91,28.88,4.71,4,9.7,3.7,15,3s10.47-1.94,15.65,1.72c-.19,2.39-.21,4.68-.57,6.91-1,6.24-2.72,12.42-3.13,18.68-1.58,24.53-2.83,49.07-4.07,73.62-2.13,41.9-4.36,83.8-6.17,125.71-1,22.94-1.11,45.92-1.82,68.88-.31,9.79-.91,10.65-10.22,13.18-5.38,1.46-9.39,4.47-13.56,7.91-4.56,3.77-5,9.19-7.33,13.85-6.49,12.87-3.44,25.36,1.47,37.5,3.7,9.14,11.19,11.22,19.88,6.66,1.46-.77,2.61-2.26,4.12-2.75a81.2,81.2,0,0,1,8.57-1.82c1.42,7.06,2.25,12.82-1.3,19.69H303.77c-2,10.38-.2,23.77,2.8,30.48,5.39,12,13.81,10.68,21.87,6,3.6-2.07,6.9-3.72,12-1.74ZM270.35,402.82l-4.72,2.78c-9.63,5.44-11.78,9.85-9.35,20.15a78.06,78.06,0,0,0,3.54,10.32c2.22,5.61,6.2,8.41,12.44,7.33,4.56-.79,9.4-.79,13.65-2.39,17.61-6.64,23.49-21,16.43-38.27-1-2.43-4-5.16-6.47-5.65C286.71,395.28,277.42,394.59,270.35,402.82Zm48.45,49.46c-2.92,4.12-4.63,7.67-7.33,10.14-20.89,19.05-30.46,41.6-21.3,69.63,4,12.31,10.43,23.82,24.87,25.21a107.82,107.82,0,0,0,30.6-1.88c14.66-2.86,21-11.65,21.88-26.77a171.17,171.17,0,0,0-4.72-51.38c-1.86-7.45-4.36-15.19-11.72-18.91C340.6,453,329.4,450.24,318.8,452.28Zm18.63-30.91c6.84-2.23,13.79-4.17,20.49-6.75,9.2-3.54,12.48-10.79,12.86-20.41.68-17.76-21.61-33.58-38.18-30.82-5.16.86-10.13,3.18-11.75,9.43a19.78,19.78,0,0,1-3.85,6.89c-7.48,9.38-6,19.16-1.49,29.05C319.74,417.94,327.64,420.37,337.43,421.37Zm84.32,5.44c-1.29-4-1.62-9.91-4.68-13.49-7.29-8.53-26.8-7.33-34.25,1.14-8.58,9.76-9.15,21.05-5.9,32.85s12.65,15.32,23.38,17c8.63,1.32,13.37-1.11,15.73-9.7S419.69,437.05,421.75,426.81Z" transform="translate(1405.16 340.23)"/><path d="M340.48,1127.77V1111.2c-5.14-2-8.44-.33-12,1.74-8.06,4.63-16.48,6-21.87-6-3-6.71-4.82-20.1-2.8-30.48h34.78c3.55-6.87,2.72-12.63,1.3-19.69a81.2,81.2,0,0,0-8.57,1.82c-1.51.49-2.66,2-4.12,2.75-8.69,4.56-16.18,2.48-19.88-6.66-4.91-12.14-8-24.63-1.47-37.5,2.35-4.66,2.77-10.08,7.33-13.85,4.17-3.44,8.18-6.45,13.56-7.91,9.31-2.53,9.91-3.39,10.22-13.18.71-23,.83-45.94,1.82-68.88,1.81-41.91,4-83.81,6.17-125.71,1.24-24.55,2.49-49.09,4.07-73.62.41-6.26,2.13-12.44,3.13-18.68.36-2.23.38-4.52.57-6.91-5.18-3.66-10.45-2.37-15.65-1.72s-10.33.93-15-3c-10.63-8.94-11.83-16.63-4.91-28.88,7.1-12.57,18.81-17.14,31.79-19.88,1.75-.37,3.74.44,6.93.88l-6.89,8.42c4.89,5.79,5.48,12.44,5,19.67-.65,9.2-10.32,8.24-14.41,13.49,8.37,5.75,14,4.42,16.31-4.67,4.74-18.34,8.5-36.93,13.09-55.31,3.3-13.21,7-26.35,11.15-39.32a33.79,33.79,0,0,1,7.24-11.72,141,141,0,0,0,19.85-28.6c3.24-6.08,8.11-11.3,12.28-16.87C429,508.05,439,495.58,448,482.4a139,139,0,0,0,13.57-25.48c3.36-8.17,2.3-17-.09-25.54-6.92-24.63-20.18-44.66-42.75-57.6-11.24-6.44-23.1-8.25-35.4-2.72-1.51.68-3.17,1.06-4.67,1.77-4.07,1.93-7,.85-9.11-3.06-2.86-5.25-6-10.37-8.79-15.64-10.09-18.88-29.67-23.69-47-10.7-9.56,7.15-18.17,15.58-27,23.61-1.9,1.73-3.19,4.18-4.54,6.43-3.88,6.44-5.18,7.18-11.85,3.06-8-4.94-16.08-6.11-24.7-2.42-2.4,1-5,2.27-6.7,4.16-13.95,15.59-21.07,32.92-13.6,54.05,5.21,14.73,9.83,29.67,15,44.41a80,80,0,0,0,7,15.4c1.76,2.87,5.19,4.72,7.14,6.39.25,3.44.44,6.53.74,9.59a4.65,4.65,0,0,0,.84,1.81c13.69,22,13.58,46,10.35,70.58-2.34,17.79-3.75,35.69-6,53.49-3.56,27.7-7.57,55.34-11.26,83-2.16,16.15-4.14,32.33-6.06,48.52-.3,2.55.19,5.19.28,7.22,7.6,1.56,14.69,2.51,21.47,4.54a24.15,24.15,0,0,1,16.13,15.23c5.41,14.22,1.58,31.91-10.13,41.9-6.51,5.56-14.19,9.76-21.47,14.36-3.37,2.12-7.25,3.44-10.55,5.65-5.73,3.83-9.42,8.88-10.25,16.22a415,415,0,0,0-2.76,60.75c.48,14.23-1.08,28.53-1.56,42.81-.56,16.63-1.2,33.27-1.32,49.91-.22,30.27-.14,60.55,0,90.82,0,4.28,1.09,8.55,1.68,12.82h-8c-.17-20.62,0-41.24-.6-61.85-.72-26.93-1.82-53.89,1.44-80.7,2.55-20.87.43-41.74,1.32-62.59.78-18.24,2.16-36.47,3-54.71a31.14,31.14,0,0,0-1.35-10.46c-1-3.35-2.51-7.06.62-9.2,6.57-4.48,6.36-11.42,7.31-17.78,3.5-23.32,8-46.61,9.48-70.09,1.56-24.7,6.72-48.79,9.35-73.27,1.78-16.54,4.59-33,6.69-49.49,1.26-9.9,3.44-20,2.71-29.78-1.06-14.08,2.81-27.62,2.52-41.49-.07-3.31.21-6.75-.6-9.89-4.53-17.65-7.16-35.82-14.27-52.77-4.1-9.8-8.49-19.5-12.19-29.45-4.16-11.22-7.48-22.74-11.52-34-9.22-25.71-3.77-44.85,14.55-64,9.6-10,27.33-12.09,41.68-5.55,5.71-5.41,11.46-11.33,17.72-16.65,7.07-6,14.2-12.14,22-17,18.92-11.86,40.33-5.69,50.74,13.9,1.56,2.92,3.55,5.6,5.33,8.4,5.32,8.42,5.5,8.91,14.83,5.54s18.25-2.33,27.29.45a58,58,0,0,1,30.24,21.28c8.8,11.58,15.27,23.9,20.74,37.21,7.08,17.22,3.36,33-6,47.38-14.08,21.71-29.39,42.62-44.13,63.89-1.89,2.73-4.13,5.43-5.18,8.49-3.23,9.42-9.35,16.82-15.73,24.09-5.32,6.07-9.91,12.5-11.76,20.58-2.81,12.32-5.81,24.6-8.59,36.93-2.34,10.39-3.65,21.08-6.85,31.19-10.46,33.07-12.68,67.23-14.5,101.48-1.51,28.25-3.13,56.49-4.28,84.76-1.54,37.58-2.06,75.22-4.17,112.76-1.57,27.77,2,55.2,2.75,82.8.38,13.93-.37,27.88-.16,41.81.23,15.95,1,31.9,1.47,47.85Zm-12.23-125.68c.45,8.88,1.67,10.83,6,9.9s3.61-4.15,2.92-7C335.75,999,332,1000.51,328.25,1002.09Zm11.38,40.82-2.4.13.48,8.43,1.92-.14Zm-1.69,60.62,1.31.06v-7.15l-1.31-.06Z" transform="translate(1405.16 340.23)"/><path d="M862.38,1127.77c-5.09-5.11-3.58-11.86-3.76-17.84-.52-16.91-.22-33.84-.21-50.76,0-21.61.22-43.23,0-64.84-.13-13.3-1.18-26.58-1.38-39.87-.41-27.29-.72-54.57-.67-81.86,0-7.94,1.47-15.88,2.18-23.83,1.24-13.93,2.35-27.87,3.64-41.79,1.94-20.88,4-41.73,6-62.61,1.52-16.57,2.34-33.23,4.46-49.72,2.72-21.12,6.51-42.1,9.67-63.17,1.18-7.89,1.84-15.85,2.78-23.78,1.85-15.54,3.64-31.08,5.62-46.6,3-23.76,5.31-47.66,9.56-71.2,4-21.89,9.85-43.45,15.3-65,4.31-17.07,8.91-34.08,14-50.92a172,172,0,0,1,14-33.11c-.83,3.95-1.36,8-2.55,11.84-7.18,23.17-15.38,46.07-21.59,69.5C911,453.67,903.24,485.37,899.92,518c-1,9.91-2.54,19.78-3.56,29.69-.31,3.06.26,6.2.51,10.65L912,550.35l7.44,6.79,8.05-4.94,16.09,16.85c3.42-2.67.91-9.83,8.05-10.18,4.4,5.14,5.84,11.79,7.41,18.52,1.19,5.07,3.37,9.9,4.89,14.9.94,3.12,1.41,6.38,2.17,9.55,1.85,7.71,3.05,15.66,5.83,23,2.55,6.74-.65,12.33-1.49,18.4C968,661,956.32,673.62,946.05,687c-1.81,2.36-3.57,4.76-5.19,7.25-8.16,12.5-15.52,25.64-24.65,37.38-7.5,9.65-17.44,17.24-28.53,22.86-2,1-4.3,1.34-8.81,2.7L891.44,746l-10-7.87c-5.49-.07-7.55,3.5-8,8.79-1,10.93-2.3,21.85-3.15,32.79-2.7,35.19-5.66,70.37-7.69,105.6-.9,15.59.14,31.3.42,46.95.61,35.3,1.53,70.6,1.86,105.9.21,22.27-.63,44.55-.56,66.82,0,7.6,1.39,15.19,2.14,22.78Zm97.87-502.33c-10.4,11.71-14.73,25.92-17.12,40.94C951.63,653.88,961.67,642,960.25,625.44Zm-71.91,11.74c-4.94,10.9-6.37,23.25-4.42,36.21C884.25,661.68,890.36,650.64,888.34,637.18Zm14.73,38.17c6-12.55,7-19.32,2.94-25.62C904.9,659.4,904,667.38,903.07,675.35Zm46.23-76,2.39,1.67c2.33-1.24,6.38-2.18,6.64-3.76.69-4.16-2.47-6.21-7.83-6.73C950.09,593.62,949.69,596.51,949.3,599.4ZM896,741.68c4-1.85,7.45-3.06,6.85-7.68-.1-.79-2.15-2.1-2.94-1.88C895.63,733.27,894.63,736.39,896,741.68Z" transform="translate(1405.16 340.23)"/><path d="M704.41,1127.77c-1.38-14.87-2.81-29.73-4.08-44.61-.19-2.16-.46-5.17.74-6.46,4-4.33,3.21-9,2.51-14-1-7.24-1.28-14.59-2.31-21.83-1.55-10.81-4.12-21.52-5.12-32.37-1.92-20.66-11.28-39.57-13.43-60.1-1.49-14.21-2.55-28.47-4.05-42.68-1.95-18.49-4.56-36.92-6.08-55.44-1.27-15.46-1.38-31-2-46.83,6.37-1.73,10.58-.64,14.16,4.64,6,8.79,12.57,17.16,19,25.68,1.55,2.06,3.29,4,6.47,7.81,1-5.21,1.76-8.53,2.29-11.87,4.78-30.25,9.22-60.55,14.46-90.71,1.7-9.75,6.3-19,8.18-28.7,4.22-21.87,7.64-43.89,11.22-65.87a21.68,21.68,0,0,0-.87-9.46,258.73,258.73,0,0,1-38.38,54.81c-1.44-2-3.4-3.74-4-5.85-8.47-28.2-21-54.54-36.17-79.69-.27-.45-1.13-.54-2.79-1.28-4.43,31-.66,61.78,0,92.66-6.55,1.24-8.48-4.21-12-6.56s-6.56-5.38-10.66-7.55c3.11,10.47,8.3,19.74,13.8,29s10.06,18.69,15,28c-5.55,4-5.65,4.19-4.22,10,1,4.24,3.69,8.25.41,13.41-2.86-8.53-5.53-17.13-8.62-25.57-3.32-9-6.78-18.05-10.63-26.87a260.28,260.28,0,0,0-12.18-25.09A195.38,195.38,0,0,0,619,660.31c-5.66-7.17-12.48-13.42-18.79-20.08l1.17-1.83c1.83.66,4.09.85,5.42,2.06,7.85,7.18,15.53,14.55,23.19,21.95,7.83,7.56,15.56,15.22,24.37,23.84,1.13-3.47,2.2-5.21,2.17-6.93-.15-10.29-.3-20.6-1-30.87-1.34-21,.35-41.88,3.1-62.69.59-4.44,1.14-8.88,3.51-13.55,1.56,4.95,3,10,4.73,14.82,3.31,9,5.87,18.5,10.48,26.83a415.87,415.87,0,0,1,23.69,51.66c1.45,3.77,1.89,9.38,7.22,9.82s6.3-5.12,8.84-8.42c.61-.79,1.23-1.57,1.91-2.3,11.67-12.56,20.5-27,27.69-42.45a22.6,22.6,0,0,1,2.73-3.77c5.27.69,5,4.22,4.63,7.57-3.85,38.44-8.42,76.72-20.39,113.77-3.24,10-4.48,20.79-5.93,31.32-3.78,27.38-8.34,54.73-10.3,82.25-1.34,18.79,1.13,37.85,2,56.79.33,7.65.4,15.35,1.34,22.94,3.47,28.07,7.39,56.09,10.87,84.16,2.09,16.85,3.71,33.75,5.44,50.64.2,1.9.51,4.93-.5,5.64-5.47,3.83-3.27,8.85-2.74,13.62,1.48,13.56,3,27.11,4.57,40.67h-12c-2.25-3.83-7.12-7.81-2.13-12.16,4.66-4.06,4.4-8.94,3.83-13.68-1.32-10.86-3.5-21.61-5.1-32.43-.31-2.12-.44-5.46.77-6.41,5.86-4.6,4.64-10.61,4.06-16.49-.71-7.28-2-14.52-2.59-21.81-.84-9.88-3-18.91-10.91-26-2.57-2.29-4-6.07-5.33-9.41-.53-1.35.6-3.35,1.21-6.14l8.74,7.26c-1.62-20.63-2.78-40.15-4.75-59.58-2.64-26.12-3.52-52.3-3.62-78.53,0-3.94-1.05-6.52-4.51-9.12-5-3.72-9-8.65-13.27-13.28-4.79-5.24-9.33-10.73-14-16.11L675.74,815c2.68,31.86.09,64.23,11.44,95.77,6.1-1.25,7.91,3.26,10,7.51,2.43,5.08,4.92,10.12,7.36,15.19.75,1.57,1.39,3.19,2.25,5.18C694.81,939,698,924,687.15,921.9c.41,6.1.16,11.37,1.18,16.38,4.64,22.8,10.14,45.44,14.36,68.32,3.68,19.93,6.17,40.09,8.93,60.19.33,2.37-.12,6.07-1.66,7.25-3.57,2.72-2.52,5.88-2.21,9,1.48,14.91,3.1,29.81,4.66,44.71Z" transform="translate(1405.16 340.23)"/><path d="M-989.26,1127.77c1-15.62,4.07-31.41,2.65-46.8-2.85-31,2.68-61.45,3.17-92.18.18-11.31-.46-22.66,0-34,1.2-30.36,6.54-60.19,11.64-90.08,4.62-27,12.75-53,20.83-79.1,4.12-13.32,6-27.4,10.6-40.51,6.74-19.1,14.37-38,22.94-56.31,7.43-15.9,16.41-31.1,25.26-46.29,4.49-7.71,10.52-14.5,15.28-22.07,8.86-14.11,9-30.32,10.22-46.2.11-1.49-.89-3.12-1.57-4.59-3.22-6.94-6.38-13.91-9.8-20.74-7.13-14.22-19.36-20.47-34.65-21.4-6.24-.39-12.52-.07-19.63-.07a62.48,62.48,0,0,1,.77-7.14c.83-3.56,2.13-7,2.93-10.58,4.92-21.82-12.18-41.05-34.47-38.13-8.17,1.07-16.1,4.06-24.13,6.23-6.67,1.8-13.33,3.68-19.1,5.27-5.89-6.19-10.84-11.49-15.89-16.7-4.36-4.48-9.52-4.94-14.5-1.56a113.5,113.5,0,0,0-14.78,11.69c-7.46,7.11-14.26,14.93-21.72,22-5.57,5.32-7.77,5.57-12.31-.26-5.46-7-11.81-7.56-19.52-6a130,130,0,0,1-16.8,2.18c-14,.89-20.17,10.46-23.88,22a59,59,0,0,0-3.12,19.61c.71,20.28,1.51,40.63,3.93,60.76,1.21,10,5.91,19.67,9.26,29.41q8.46,24.57,17.26,49c1.54,4.29,2.56,9.65,8.92,7.07,1.9,10.09,3.5,19.22,5.36,28.29,3.68,17.91,7.54,35.79,11.21,53.71.44,2.17,1.1,5.26,0,6.62-4.59,5.78-3.81,12.59-4.64,19.1-4,31.36-8.09,62.72-12,94.1-3.51,28.42-6.49,56.92-10.3,85.3-2.25,16.81-5.78,33.45-8.49,50.21-2.55,15.79-4.77,31.63-7.14,47.44-.2,1.32,0,2.93-.71,3.88-1,1.35-2.68,2.22-4.07,3.3-.84-1.26-2.35-2.49-2.4-3.78a41.91,41.91,0,0,1,1-7.9c4.66-29.28,9.67-58.5,13.92-87.83,3.58-24.72,6-49.59,9.47-74.33,3.91-28.36,8.56-56.62,12.43-85,2.55-18.72,5.22-37.5,3.24-56.52a14.57,14.57,0,0,0-.12-2c-5.72-23.87-7.79-48.49-17.81-71.49-8.89-20.4-14.68-42.13-23-62.81-10.74-26.74-9.86-54.67-10.69-82.55-.42-14.16,3-26.8,11.06-38.54,5.57-8.1,13-12.21,22.34-13.26,7.94-.88,15.93-1.26,23.88-2.09,5.41-.57,10,.65,13.13,5.28,3.36,4.89,7.17,4.27,10.89.81,7.3-6.79,14.43-13.77,21.58-20.72,1.18-1.15,2-2.68,3.21-3.81,12.95-12.28,21.18-12.41,33.89-.51,3.14,2.95,6.13,6.08,10.24,10.17,8.22-2,17.15-4.29,26.13-6.37a187.55,187.55,0,0,1,18.56-3.73c10.76-1.37,19.21,2.95,25.92,11.37,8.68,10.92,12.23,22.74,7.43,36.36a10.88,10.88,0,0,0-.43,3,23.63,23.63,0,0,0,.51,3.33c5.6.91,11.63,2.23,17.74,2.81,16.24,1.54,27.1,10.06,35.69,23.79,17.45,27.89,7.61,72-10,91.85A94.73,94.73,0,0,0-894.32,657c-13.52,24.46-26.47,49.22-35.75,75.69-4.73,13.47-9.68,26.79-11.87,41.15-1.83,12.09-5.5,24.05-9.63,35.61-6.43,18-9.81,36.64-13,55.29-4.39,25.58-7.85,51.33-11.58,77a66.21,66.21,0,0,0-.81,12.95c1.32,24.68-.3,49.24-2.33,73.81-1.09,13.27-1.89,26.58-2.23,39.89-.14,5.5,1.9,11.05,1.84,16.56-.14,11-1.09,21.94-1.61,32.92-.15,3.3,0,6.62,0,9.93Z" transform="translate(1405.16 340.23)"/><path d="M534.45,1127.77c-.81-11.89-1.71-23.77-2.38-35.66-.36-6.47-1.26-12.58,1.39-19.39,2.37-6.07,1.33-13.78.69-20.66-1.81-19.54-4-39-6.38-58.52-3.75-30.77-11-60.85-18.66-90.84-4.58-18-9.22-36.06-14.35-54-1.81-6.33-5.18-12.21-7.76-18.33a711.5,711.5,0,0,1-25.89-70.1c-6.18-20.33-13.13-40.54-26-58-1.74-2.35-2.8-5.2-4.13-7.71,5.67-4.82,7.1-5.14,10.69-1.15,3.76,4.2,6.89,9,10.48,13.34,7,8.48,13.92,17,21.19,25.2,2.29,2.59,5.56,4.29,8.48,6.47,4.34-3.7,3.76-7.73,3.93-11.65s.06-8.12,1.34-11.75c6.3-17.89,7.42-36.39,7.69-55.11.14-9.24,1.56-18.45,2-27.7.2-4.61-.91-9.27-.79-13.89.05-1.86,1.39-4.77,2.85-5.3,3.4-1.25,4.69,1.58,5,4.46,2,22.07,9.08,42.91,15.44,63.88,3.46,11.4,8,22.49,12.13,33.66,1.79,4.79,4,9.43,5.07,14.5a98.6,98.6,0,0,1-17.46-37.32c-1.34-5.77-3.69-11.29-5.52-17-3.08-9.48-6.08-19-9.19-28.46-.26-.8-1.13-1.39-2.79-3.35-.61,4.36-1.15,7.48-1.46,10.62-2.1,21.17-2,42.5-6.93,63.48-2,8.46-.09,17.83.09,26.78,0,2.18.26,4.35.43,7-9.18.55-11.52-8-17.37-11.13-5.61-3-10.43-7.54-16.49-10.7C471.74,769.37,484,808.72,502.88,847c7.1-8.84,12.82-17.39,20-24.47,7-6.89,12.4-15.85,21.44-20.47l1.69,1.48a42,42,0,0,1-2.93,5.61c-7,9.71-14,19.48-21.31,28.93-3.81,4.91-8.33,9.28-12.64,13.78-2.86,3-3.31,6.23-2.18,10.11,1.82,6.24,1.6,13.18,6.48,19,11-5.39,13.8-19,26.1-24.75-1.1,2.74-1.43,4.51-2.39,5.82-6.48,8.79-11.33,18.9-20.85,25.26a6.1,6.1,0,0,0-1.93,5.21c2.33,9.62,5.09,19.13,8,29.78,2.51-2,4.2-2.87,5.32-4.24,5.63-6.94,11.35-13.84,16.52-21.12a15,15,0,0,0,2.77-9.09c-1.12-13.87,1.06-27.14,5-40.37,1.5-5,.87-10.58,1.74-15.82,3.19-19.32,6.42-38.64,10.11-57.88.63-3.32,3.57-6.19,5.91-10-4.24-4.07-3.22-9.11-.83-14.5,2.52-5.69,4.26-11.73,6.72-17.45.91-2.14,2.91-3.81,4.41-5.69l2,1c-2.8,10.86-6,21.63-8.34,32.58-5.47,25.36-10.53,50.8-15.76,76.2-.8,3.91-1.57,7.82-2.41,11.71-4.73,21.73-4.75,43.74-2.75,65.66s1,43.79,1,65.69c0,31,.45,62,.63,92.94.1,18.64.07,37.27.09,55.91h-4c-.64-10.28-1.67-20.56-1.81-30.84-.14-9.94.92-19.88,1-29.83.1-21.93-.12-43.85-.17-65.78,0-13.12,0-26.23,0-40.64-7.13,3.77-6.35,11.78-11.7,16.12-2.62-5.63-.17-10,2.12-13.47,6.2-9.51,9.56-19.66,9.45-31-.09-10.1.33-20.3-4.48-30-7.14,6.6-17.65,24.64-18.58,31.88a23,23,0,0,0,.31,6.92c4.7,26.2,9.36,52.38,9.87,79.14.05,3.07,3.43,6.07,5.92,10.18-3.93,10.86-3.9,23.37-2.5,36.08.4,3.64-.83,7.47-1.44,12.24l4.58,3.5c-6.43,15-3.17,30.3-2.52,45.51Z" transform="translate(1405.16 340.23)"/><path d="M-347.38,1127.77a178.93,178.93,0,0,0,1.4-52.68,25.4,25.4,0,0,1-.44-3.95c1-24.6,2.64-49.19,3.05-73.8.47-27.94.46-55.93-.39-83.87-1.59-52.25-5.25-104.48-3-156.76,1.27-30.05,1.17-60-2.11-89.8-2.77-25.12-7.36-50-11.15-75-1.59-10.53-2.9-21.11-4.82-31.57-4-21.57-6.78-43.32-13.13-64.49-4.27-14.25-6-29.25-9-43.89-.93-4.55-2.14-9.07-3.51-13.51-3.09-10-8.41-16.91-19.58-20.09-18.12-5.16-32.94-17.1-48.3-27.57-11.53-7.86-22.73-16.21-33.91-24.56-8.7-6.51-17.14-13.35-25.89-20.21,1.93-4.81,5.58-4,8.75-1.88,6.94,4.57,14.17,9,20.22,14.56,11.73,10.87,25.71,17.32,39.85,24.22,13.63,6.66,25.8,16.31,38.6,24.67,2.72,1.77,5.37,3.64,9.29,6.3.52-3.45,1.34-5.59,1.05-7.56-2.24-15.47-5.57-30.84-6.86-46.38-1.37-16.52-1-33.2-1.08-49.81,0-3.52.37-7.56,5.61-8.53,4,2.84,2.47,7,2.12,10.73a189.22,189.22,0,0,0,6.38,71.22c.45,1.56,1.18,3,2.3,5.84,4.23-5.69,7.85-10.57,11.49-15.44,10.54-14.13,20.95-28.36,31.7-42.32,6.29-8.16,13-16,19.81-23.73,2.25-2.54,5.5-4.2,8.25-6.22,7.27,9,6.61,11.74-.22,19.26-20.09,22.12-42.55,42.48-54.6,70.83-1.95,4.59-4.15,9.11-5.63,13.86-2.2,7.09-1.69,8.13,3.95,13.66-.37.49-.7,1.38-1.13,1.43-11.05,1.23-10.61,1.09-7.54,11.6s5.26,21.3,7.6,32C-373.11,488-367.8,511.7-363,535.5c2.67,13.38,4.35,27,6.44,40.44,4.64,29.93,10.1,59.77,13.62,89.84,3.37,28.76,3.62,57.74,2.18,86.78-1.26,25.59-1.11,51.29-.63,76.92.93,49.95,2.77,99.89,3.68,149.85.24,13.6-1.69,27.24-2.29,40.88-.7,16-1.27,31.94-1.44,47.91-.21,19.88.05,39.77.1,59.65Z" transform="translate(1405.16 340.23)"/><path d="M1482.26,1127.77c1.4-12.53,2.9-25,4.13-37.6.54-5.54,1.41-11.06-2.45-16.29-1.49-2-1.47-5.91-.8-8.62,4.36-17.63,3.15-35.74,4.86-53.59,1.56-16.26,3-32.45,8-48.13a73,73,0,0,0,2.36-12.71c3-22.37,5.18-44.88,9.16-67.07,3-16.55,2-33.16,3.51-49.68.88-9.59,1.8-19.18,2.45-28.79.77-11.18,1.33-22.37,1.83-33.57.52-11.58.87-23.17,1.27-34.76.48-13.93.9-27.86,1.41-41.79.2-5.6.6-11.19.86-16.79.18-4,.26-7.9.42-11.85q.29-7,.67-13.94c.06-1,.47-2,.46-3-.1-7.16-1.69-14.68,0-21.38,1.82-7.3,3.76-13.9,1-21.31-.85-2.26.28-5.22.32-7.87.1-5.63.09-11.27.09-16.91,0-2.32-.35-4.65-.15-6.95,1.42-16.15,2.71-32.31,4.48-48.43,3.22-29.37,1.44-58.21-8-86.4a42.23,42.23,0,0,1-1.8-7.78c-2.58-19.68-10-37.95-17.39-56.05-5.6-13.8-13.45-26.71-20.67-39.81-7.68-14-15.69-27.73-23.74-41.48-6.34-10.84-13.08-21.46-19.4-32.32-2.83-4.87-5.17-10-7.57-15.14-5.38-11.4-10.42-22.84-14.18-35-2.52-8.15-8.82-15.49-14.69-22.07-2.57-2.88-4.73-4.87-4.8-8.88-.08-4.84-.69-9.66.36-14.9.89,1.63,2.35,3.18,2.58,4.89,1.12,8.35,6,14.6,10.84,21a65,65,0,0,1,10.07,20.42c6.34,20.81,16.93,39.66,28,58.33,18.3,30.92,36.42,62,53.73,93.45,10.46,19,15.82,40.13,20.79,61.22,1.59,6.79,3.41,13.54,5.39,20.24,7.57,25.53,9.45,51.34,7.39,78-2.82,36.47-3.4,73.12-5,109.68-1.38,31.28-3.89,62.54-4,93.82-.22,43.65-3.38,87.12-6.11,130.61-1.25,19.9-4.28,39.72-7.15,59.49-3.49,24-8.19,47.88-11.39,71.93-3.51,26.39-5.91,52.92-8.73,79.4-.17,1.58-.38,4.09.48,4.72,5,3.58,3,8.43,2.62,12.82-1,13.6-2.27,27.19-3.44,40.78Z" transform="translate(1405.16 340.23)"/><path d="M92.53,1127.77q-2.39-20.24-4.76-40.47c-.53-4.55-.92-8.39,2.72-12.84,2.46-3,1.41-9.4,1-14.19-1.13-12.85-3.17-25.63-4.11-38.5C86,1002.87,85.3,983.91,84.19,965a9.6,9.6,0,0,0-1.41-3.51c-9.59.68-18.33,1.56-27.09,1.78a33.13,33.13,0,0,1-11.75-1.94c-2.6-.92-6.12-3.15-6.61-5.37-1.94-8.86-6-17.37-3.61-27.08A72.31,72.31,0,0,1,49.1,898c5-5.81,10.91-8.5,18.46-7.6,4.93.59,9.86,1.29,15.92,2.09.92-1.9,3.07-4.21,2.89-6.33-1.11-13.59,4.33-26.19,5.41-39.4,1.16-14.14,4.84-28,3.54-42.45-.43-4.78,1.07-9.77,1.87-14.63q5.81-35.28,11.71-70.54c0-.32.33-.67.26-1-2.94-12.2,1.75-22.52,7.51-32.82,1.67-3,1.27-7.11,1.94-10.69a16.39,16.39,0,0,1,2.63-6.81c3.26,6.73,2.08,13.73.06,19.83-7.28,22-8.89,45-12.71,67.6-4,23.6-6.7,47.43-9.54,71.21-2.77,23.14-6.23,46.29-7.16,69.53a834.2,834.2,0,0,0,1.77,100.73c.91,11.28,1.35,22.61,2.17,33.9.77,10.61,1.84,21.21,2.62,31.82.35,4.75,2.78,9.84-2.29,13.92-.87.69-.58,3.15-.42,4.76,1.55,15.54,3.18,31.07,4.79,46.61ZM61.71,955.32c-3.52-1.3-7.7-1.56-8.56-3.39-3.16-6.65-7.48-4.44-12.35-3.21C45.9,956.86,48.93,957.84,61.71,955.32Zm21.6-52.63-2.65-.06q1.29,11.42,2.57,22.83A47.54,47.54,0,0,0,83.31,902.69ZM50.66,914.56l-1.93-1c-6.84,5.5-6.85,5.55-3.46,12.51Zm31.89,33.56c-1.45-.93-2.26-1.84-2.84-1.72a3.05,3.05,0,0,0-2,1.79c-.15.5,1,2,1.24,1.93A18.93,18.93,0,0,0,82.55,948.12Z" transform="translate(1405.16 340.23)"/><path class="cls-1" d="M712.41,1127.77c-1.56-14.9-3.18-29.8-4.66-44.71-.31-3.14-1.36-6.3,2.21-9,1.54-1.18,2-4.88,1.66-7.25-2.76-20.1-5.25-40.26-8.93-60.19-4.22-22.88-9.72-45.52-14.36-68.32-1-5-.77-10.28-1.18-16.38C698,924,694.81,939,706.74,938.66c-.86-2-1.5-3.61-2.25-5.18-2.44-5.07-4.93-10.11-7.36-15.19-2-4.25-3.85-8.76-10-7.51-11.35-31.54-8.76-63.91-11.44-95.77l3.09-1.09c4.65,5.38,9.19,10.87,14,16.11,4.23,4.63,8.31,9.56,13.27,13.28,3.46,2.6,4.49,5.18,4.51,9.12.1,26.23,1,52.41,3.62,78.53,2,19.43,3.13,38.95,4.75,59.58l-8.74-7.26c-.61,2.79-1.74,4.79-1.21,6.14,1.33,3.34,2.76,7.12,5.33,9.41,7.88,7,10.07,16.08,10.91,26,.62,7.29,1.88,14.53,2.59,21.81.58,5.88,1.8,11.89-4.06,16.49-1.21,1-1.08,4.29-.77,6.41,1.6,10.82,3.78,21.57,5.1,32.43.57,4.74.83,9.62-3.83,13.68-5,4.35-.12,8.33,2.13,12.16Zm-9.67-241.41,1.82-1.26q-6.07-11.33-12.15-22.66c-1.12-2.09-2.45-4.6-5.12-2.5-.84.66-.77,3.83.06,5C692.29,872.24,697.57,879.26,702.74,886.36Z" transform="translate(1405.16 340.23)"/><path d="M-37.44,1127.77c.63-10.24.86-20.52,2-30.7.92-8.08,1.1-15.82-1.91-23.54a16.53,16.53,0,0,1-.72-7.79c1.86-15.17,3.47-30.27,3.28-45.67-.27-22.3,2.78-44.42,6.24-66.47,2.1-13.41,2.7-27.05,4.47-40.52,1.93-14.73,4.5-29.37,6.67-44.07,2.29-15.43,4.67-30.85,6.57-46.33,1.86-15.14,3.73-30.31,4.56-45.52,1-18.81,1.22-37.69,1.34-56.54.07-11.59,1-23.23-1.56-34.78-.56-2.55,1.17-5.61,3.52-8.41.72,7.49,1.45,15,2.18,22.6,1.15.34,2.05.9,2.92.84,7.13-.5,7.17-.5,7.71,6.33.27,3.45-1.21,7.56,4.63,9.8,1.44-5.34,2.85-10.53,4.41-16.28l-9-7.14c3.69-.54,5.94-1.61,7.51-1,14.17,5.71,23.35,16,27.39,30.84,3.87,14.22-2,25.1-11.18,35.21C24.83,768.25,14.33,773.52,0,773c-.6,6.37-1.06,12.49-1.77,18.58q-4.1,35.14-8.35,70.27Q-14,893.08-18,924.22c-1.75,13.53-4.31,27-5.39,40.57-2.05,25.54-3.23,51.16-4.9,76.73-.43,6.63-1.36,13.23-2,19.85-.59,5.76-.51,10.86,1.62,17,2.65,7.6.33,17-.26,25.64-.54,7.94-1.63,15.85-2.48,23.78ZM4,769.05c1.56-1.77,3.48-3.5,3.28-3.8a30.23,30.23,0,0,0-4.16-4.32c-.88,1.14-2.63,2.44-2.46,3.38C.92,765.8,2.49,767.05,4,769.05Z" transform="translate(1405.16 340.23)"/><path d="M-677.32,1127.77c.63-10.29,1.47-20.56,1.84-30.85.31-8.53,2.49-17.24-1.73-25.52a7.83,7.83,0,0,1-.27-3.94c2.55-30.18,4.43-60.45,7.92-90.53,4-34.67,9.13-69.23,14.52-103.72a284,284,0,0,1,10-42.72c6.69-20.86,14.3-41.46,22.44-61.8,11.49-28.69,23.69-57.1,35.85-85.51,7.07-16.51,14.8-32.72,21.94-49.19,4.5-10.37,8.78-20.85,12.59-31.48,3.07-8.59,2.67-17.52,1.93-26.62-2-23.77-14-42.4-28.76-59.82-11.39-13.4-26.76-19.28-43.37-22.68-7.85-1.61-7.11-1.67-9.14-9.05a176.33,176.33,0,0,0-10.21-27.92c-3.93-8.39-10.14-14.91-21-14.15,9.3-3,15.86-.92,21.45,6.1,7,8.83,10.93,19.17,12.86,30,1.14,6.36,4.22,9.13,9.79,10.88,7.27,2.29,15.17,3.85,21.4,7.89,9.67,6.26,19.91,13,26.71,22,8.92,11.76,16.8,25.21,21.34,39.16,5.54,17,6.18,35.34-1.38,52.64-8.23,18.88-16.76,37.64-25,56.51-3.07,7-5.68,14.21-8.63,21.28-9.08,21.76-18.68,43.33-27.22,65.31-7,18-12.7,36.41-19,54.63-3.48,10.06-7.95,19.88-10.33,30.19-4.81,20.73-8.45,41.73-12.66,62.6-8.84,43.83-10.24,88.55-15.72,132.78-1.34,10.88-1.82,21.89-2.27,32.85-.13,3.06,1.44,6.16,2,9.28a34.17,34.17,0,0,1,.57,7.61c-.84,13-1.86,25.89-2.75,38.84a36.12,36.12,0,0,0,.32,5Z" transform="translate(1405.16 340.23)"/><path class="cls-1" d="M540.45,1127.77c-.65-15.21-3.91-30.52,2.52-45.51l-4.58-3.5c.61-4.77,1.84-8.6,1.44-12.24-1.4-12.71-1.43-25.22,2.5-36.08-2.49-4.11-5.87-7.11-5.92-10.18-.51-26.76-5.17-52.94-9.87-79.14a23,23,0,0,1-.31-6.92c.93-7.24,11.44-25.28,18.58-31.88,4.81,9.74,4.39,19.94,4.48,30,.11,11.31-3.25,21.46-9.45,31-2.29,3.5-4.74,7.84-2.12,13.47,5.35-4.34,4.57-12.35,11.7-16.12,0,14.41,0,27.52,0,40.64.05,21.93.27,43.85.17,65.78-.05,10-1.11,19.89-1,29.83.14,10.28,1.17,20.56,1.81,30.84Z" transform="translate(1405.16 340.23)"/><path d="M1078.34,1127.77c-3.92-9.69-8.09-19.28-11.69-29.09-2.48-6.76-4.16-13.81-6.15-20.53,4.85-2.94,7.39-1.75,8.66,2.18,5.12,15.79,10.13,31.62,15.18,47.44Z" transform="translate(1405.16 340.23)"/><path d="M-1143.23,1127.77c2-14.74,4-29.49,6.13-44.21.52-3.56.58-8.32,8-6.61-2.73,17.14-5.42,34-8.11,50.82Z" transform="translate(1405.16 340.23)"/><path d="M-223.41,1127.77c-2.21-15.62-4.6-31.22-6.53-46.87-.54-4.46,1-5,8.31-3.81l-.16,0c.07,8.79-.37,17.63.37,26.36.69,8.18,2.62,16.25,4,24.37Z" transform="translate(1405.16 340.23)"/><path d="M-811.3,1127.77c2.2-15.39,4.36-30.78,6.64-46.16.44-3,1.1-6.09,6.49-5.14.36,8.4-1.39,16.6-3,24.87-1.65,8.76-2.81,17.62-4.18,26.43Z" transform="translate(1405.16 340.23)"/><path d="M1304.3,1127.77q4.71-19.32,9.43-38.64c1.13-4.61,1.75-9.48,5.39-14,2.48,6.27,2.45,6.26-2.56,26.47-2.15,8.7-4.18,17.44-6.26,26.16Z" transform="translate(1405.16 340.23)"/><path d="M-221.63,1077.09c-1.39-3.33-3.56-6.55-4-10-1.91-14.15-3.29-28.37-4.89-42.57-1-9.24-2.24-18.47-3.17-27.73-1.09-10.92-2.18-21.84-2.91-32.78-2.1-31.56-4.49-63.11-5.81-94.71-.6-14.24,1.07-28.59,1.71-42.89.34-7.63.75-15.26,1-22.9q1.45-40.9,2.83-81.82c.18-5.32.08-10.64.36-15.95,1.09-19.94,3.33-39.88,3.19-59.81-.21-32.62,3.81-65.08,2-97.81-1-17.79,2.27-35.83,3.95-53.72,1.52-16.23,3.49-32.41,5.28-48.61,1.08-9.75-3.29-18.33-6.35-27-7.34-20.8-18.12-39.92-30.52-58.11-2.6-3.81-5.85-7.18-8.79-10.75,3.54-6.36,4.65-7,8.87-3a55.85,55.85,0,0,1,9.9,12.41c8.59,15,16.71,30.31,25,45.48.59,1.07,1.42,2,3.25,4.59,2.12-6.25,3.72-11.1,5.41-15.92,1.76-5,3.65-10,5.41-15,5.06-14.45,10-28.93,15.2-43.33a21.25,21.25,0,0,1,4.06-6.73,4.8,4.8,0,0,1,4.29-1.23c1.17.48,2.57,2.63,2.39,3.83a58.26,58.26,0,0,1-3,12.55C-194,361.74-196.16,381-199.28,400c-.19,1.19.38,2.49.87,5.34,4.31-2.81,8.36-4.54,11.19-7.46,11.36-11.71,26-18.65,39.61-26.75a168.85,168.85,0,0,1,46.89-19.33c1.61-.38,3.34-1.64,4.72-1.3a9.09,9.09,0,0,1,5.21,3.34c.5.76-1.07,3.59-2.38,4.63-1.77,1.39-4.19,2-6.34,2.87-11.62,5-23.17,10.15-34.88,14.91-13.27,5.39-24.38,14-33.78,24.34-6.87,7.54-11.76,16.9-17.45,25.5-2.57,3.89-4.66,8.13-7.52,11.77-1.15,1.45-3.81,1.7-5.78,2.49-.49-2-1.85-4.37-1.31-6.09,1.2-3.76,3.4-7.19,5.12-10.79a13.27,13.27,0,0,0,1.6-7.82c-5.33,6.17-10.66,12.33-18.35,21.2-1.89,15.37-4.34,34.32-6.54,53.29-1.68,14.56-3.39,29.13-4.41,43.74-.6,8.6.16,17.29.25,25.94.08,8.32.37,16.65.07,25-1,27.62-2,55.26-3.45,82.87-1.26,24.94-3.09,49.86-4.54,74.8-.61,10.63-1,21.28-1.32,31.93-.84,27-1.78,53.89-2.27,80.85-.2,11.64.49,23.3,1,34.94,1,24,1.88,47.92,3.4,71.85,1.07,17,3,33.85,4.78,50.75,1.89,18.21,3.79,36.42,6.2,54.57.56,4.21-1.75,6.57-3.14,9.67A1.25,1.25,0,0,0-221.63,1077.09Z" transform="translate(1405.16 340.23)"/><path d="M-704.63,460.89c-7.72,6.77-14.12,5.84-20.9-2.33a95,95,0,0,0-13.2-13.25c-5.91-4.77-12.35-4.79-18.22.31a157.13,157.13,0,0,0-19.66,19.8c-7.51,9.39-6.79,21.26-7.28,32.54-.26,5.9-.05,11.83-.05,17.85-6.41,2.62-11.88,1.89-17.36.31-3.83-1.1-7.59-2.51-11.47-3.39-6.63-1.51-10.12.35-12.65,6.36a10.69,10.69,0,0,0-1.1,3.82c-.16,15.29-1.86,30.79.17,45.79,1.9,13.93,6.61,27.51,12.92,40.68,8.92,18.65,13,39,14.3,59.9.87,14.23,3.06,28.4,4.88,42.56.89,6.93,4.8,12.17,10,16.7,3.49,3,6.49,6.63,9.7,10,5.43,5.65,6.2,5.65,11.84,0,.69-.69,1.46-1.3,2.35-2.1,5.53-.09,7.72,4.42,10.73,7.8,4.28,4.82,7.35,10.41,15.85,10,6.33-.35,12.4,2.85,19.06-1.28,6.84-4.24,14.54-4.55,22.12,3a60.29,60.29,0,0,1-7-.75,12.58,12.58,0,0,0-11.25,2.15c-5,3.7-10.73,5.25-17,3.12a7.61,7.61,0,0,0-3.89-.65c-10.94,2.52-16.48-4-21-12.3-.45-.82-1.44-1.33-2.11-1.93-.79-.06-1.58-.38-2.07-.12-9.65,5.26-9.61,5.23-18-2.09-3.88-3.39-7.12-7.91-14.39-8.57-.13,4-.54,7.42-.3,10.84,1.62,23.57,3.49,47.12,5.08,70.68,2.6,38.61,2,77.22-.51,115.81-.31,4.62,0,9.28,0,13.93l12.54,9a32.3,32.3,0,0,1,3.67-2.15c5.14-2.28,7-1.69,9.52,3.33,1.76,3.5,3.18,7.17,5.08,11.52l10.5-6.25c2.44,5.44,4.64,10.32,7.31,16.24,3.29-2.66,5.55-4.46,7.79-6.29,3.31-2.72,6.57-2.3,8.21,1.44,2.07,4.74,5.33,7,10.69,6.51-2.46,5.44-5.57,5.05-9.48,3.39-2.52-1.06-5.79-2.2-8.15-1.46-10,3.13-9.93,3.38-16.87-4-1,.38-2.2.86-3.41,1.26-6.73,2.22-7.86,1.65-10.61-4.57a46.61,46.61,0,0,0-4.7-8.65,9.71,9.71,0,0,0-4.79-2.89c-3.67-1.16-7.59-1.61-11.18-3s-6.09,0-7.25,3.05a43.48,43.48,0,0,0-2.88,11.55c-2.3,27.28-8.86,53.82-13.74,80.66-.89,4.9-1.24,9.91-2.21,14.8-.37,1.88-1.77,3.55-2.71,5.31l-2.38-.45c-.19-2.32-.86-4.73-.49-7,4.11-24.62,8.46-49.21,12.54-73.84,1.3-7.87,2.2-15.81,2.93-23.76,1.93-20.86,3.8-41.74,5.41-62.63.64-8.28.89-16.62.71-24.92-.65-28.94-1.38-57.87-2.46-86.78-.6-16.25-1.49-32.5-3.1-48.67-1.39-13.88-4.1-27.62-6-41.46-1-7.2-1.29-14.49-2.13-21.71a26.88,26.88,0,0,0-2-6.26c-.66-1.72-2.26-3.34-2.24-5,.14-22.81-6.58-44.07-15-64.82-9.25-22.94-13.27-46.53-11.32-71.16.32-4,.24-8,.79-12,1.29-9.32,8.34-17.43,16.08-17.89,3.43-.2,7,1,10.43,2,2.5.76,4.66,2.59,7.15,3.4,6.35,2,8.62.72,9.53-6,1.06-7.92,1.87-15.89,2.3-23.87.52-9.46,3.85-17.49,10.76-24,5.08-4.77,10.06-9.69,15.46-14.08,11.18-9.06,20.93-7.86,32.87,2.94,2.68,2.43,4.65,5.65,6.89,8.56,4.29,5.57,9.46,8.31,16.5,5.33Z" transform="translate(1405.16 340.23)"/><path d="M1266.13,75.37a17.64,17.64,0,0,0-4.83,1c-8.23,3.83-14.51,1.74-18-6.34-4.52-10.38-9.46-20.51-17.25-28.94a45.46,45.46,0,0,0-4.87-4.94c-10.12-8.08-20.33-16-30.5-24a4,4,0,0,1-.78-.62c-6.5-8.93-15.27-15.21-23.84-22-5.72-4.51-5.4-12.42-2.73-19.42,1.4-3.67,2.9-7.3,4.56-11.47h-6c.66-11.11,7.79-18.65,15-25.66,7.62-7.46,17.78-7.59,28-7.95,11.47-.4,17.68,9.63,27.17,12.94,1-1.51,2.09-2.3,2.06-3.06-.54-14.82,8.77-21.41,21.08-25.66,18.68-6.46,38.49-2.49,47.9,11.76,5.73,8.69,8.93,19.21,12.38,29.22,4.92,14.26.22,27.68-5.75,40.45-4.93,10.53-11,20.52-16.48,30.79-2.66,5-5.09,10.09-7.67,15.12-3.64,7.09-7.38,14.13-11,21.26C1271.84,63.12,1269.39,68.51,1266.13,75.37ZM1173.57-42c1.57,1.89,4.35,3.69,4.32,5.44C1177.68-21.36,1188-11.22,1196.27-1c8.44,10.41,19.92,18.48,30.59,26.9,9.07,7.16,16.67,15.17,21.2,25.9a108.2,108.2,0,0,0,4.75,9.89,54.66,54.66,0,0,0,4.18,5.72c1.81-1.6,3.44-2.44,4.13-3.76,5.34-10.25,13.53-18.71,17.17-30.15,2.47-7.77,7.41-14.8,11.52-22,7.59-13.32,14.51-26.88,18.48-41.83a29.31,29.31,0,0,0-.14-16.47c-2.56-8.93-5.05-17.63-9.52-25.94-2.46-4.57-5.23-7.44-9.81-9-10.87-3.56-21.32-2.23-32.2,1.16-12.1,3.77-17.17,11.08-16.76,23.34.14,4.42-.84,8.87-1.48,14.91-7.45-5.62-13.4-10.08-19.31-14.58C1201.67-70.14,1181.89-65.9,1173.57-42Z" transform="translate(1405.16 340.23)"/><path d="M1305.78,1075.24c.52-4.3.59-7.43,1.3-10.41,7.83-32.71,16-65.34,23.58-98.11,8-34.75,14.39-69.81,18-105.34,1.56-15.22,3.92-30.37,6.12-45.52,5-34.61,9.37-69.27,10.41-104.3.5-16.94,3-33.83,3.17-50.76.25-24.63-.66-49.27-1.3-73.89-.34-13-.34-26-2-38.87a548.85,548.85,0,0,0-16.34-81.92c-6-21.06-9.4-42.84-17.43-63.37-.15-.41.51-1.13,1.33-2.83,1.51,2,3.28,3.44,3.78,5.21,4.53,16,9,32,13.14,48.12,2.27,8.69,3.52,17.66,6.07,26.26a377.22,377.22,0,0,1,15.11,100.23c.5,25.63,2,51.27,1.73,76.89-.22,24.63-1.64,49.27-3.3,73.85-1.44,21.25-3.77,42.45-6.1,63.63-1.24,11.23-3.6,22.34-5,33.56-2,16.19-3.49,32.45-5.33,48.66-4.64,40.79-13.6,80.74-23.65,120.48-5.88,23.26-11.3,46.63-17,69.94C1311.46,1069.72,1311.62,1073.37,1305.78,1075.24Z" transform="translate(1405.16 340.23)"/><path d="M1153.64,168.17c-2.15-6.77-5.9-6.81-10.6-5.24-10.22,3.41-19.73,8-27.68,15.4a12.09,12.09,0,0,1-6.25,3.69c.8-1.89,1.08-4.43,2.49-5.56,5.38-4.33,10.66-9.24,16.84-12,9.35-4.21,19.49-6.63,29.12-10.27a11.94,11.94,0,0,0,6.2-5.45c4.45-9.67,2.38-18-5.51-25.2-11.6-10.51-25.69-11.87-40.23-10.3-7.79.85-11.57,7.16-14.49,13.78-1.11,2.51-.58,6.09-5.35,7.31-1.5-10.52,4.39-17,10.81-23a16.55,16.55,0,0,1,6.07-3.38c13.88-4.57,42.22-.6,52,16a26.62,26.62,0,0,1,3.78,18c-1.41,10.06-.87,11.39,9.24,14.07a76.7,76.7,0,0,1,30.77,15.74c13.28,11.29,17.12,26.42,18.58,42.64.47,5.26-2.39,9.34-5.39,13.55-5.63,7.91-13.12,13-21.71,17.08-6.21,2.91-11.64,2.09-16.44-2.71-3.06-3.06-5.9-6.34-8.92-9.43-11.49-11.77-27.59-13.13-40.6-3s-24,22.7-26.6,39.66c-3.89,25.23,3.66,42.22,26.79,53,6.59,3.07,12.57,7.41,19,10.92,16,8.8,31.55,18.62,49.16,24.22,1,.32,1.76,1.48,4,3.48-3.6,0-5.42.28-7.12,0-15.26-3-28.34-11-41.73-18.24-7.88-4.27-15.58-8.87-23.53-13-21.79-11.37-33.55-28.35-30.16-54,3.16-23.91,16.42-41.13,34.74-54.73,12.12-9,31.61-5.9,42.39,4.82,1.65,1.65,3.11,3.48,4.66,5.22,8.26,9.21,15.3,9.92,24.9,2.11a54.72,54.72,0,0,0,9.82-9.89c2-2.79,4.06-6.74,3.68-9.88-1-7.86-1.51-16.65-5.45-23.08-8.21-13.38-19.06-24.82-35.63-28.22a117,117,0,0,0-15.71-2.51c-2.36-.15-5,1.22-7.23,2.41C1159.75,163.56,1157.47,165.49,1153.64,168.17Z" transform="translate(1405.16 340.23)"/><path d="M1326.6,394.61c-18.71,20.93-41.52,29.8-69.52,23.49-10.77-2.43-15.7-10.9-19.4-19.86-2.57-6.22-3.31-13.19-5-20.61,16.35,4.43,27.87-4.85,39-14.18a106.13,106.13,0,0,0,17.14-18.05,53.3,53.3,0,0,0,8.49-17.75,170.16,170.16,0,0,0,5-59.39c-1-10.28-8.63-20-18.66-22.15-2.66-.58-5.88.23-8.55,1.2-5.28,1.91-10.29,4.56-15.54,6.6-11.59,4.5-17.29.47-18.39-11.7-2.34-25.88,11-44.09,29.83-58.52,6.63-5.08,16.66-6,25.34-8,6.43-1.47,13.16-1.56,20.48-2.34-.52-3.17-1-5.87-1.53-9.31h10.45c.42-5.55.82-11.09,1.27-16.63.85-10.57,12-21.32,22.36-21.55a12.34,12.34,0,0,1,3,.25c11.88,2.65,31.22,19.9,37.66,34.76-4-3.46-7-5.32-9-8-6.2-8.38-14.86-13.09-24-17.25-10.1-4.59-16.48-3.86-22.72,2.78-4.68,5-5.58,16.26-1.8,23.43a24.28,24.28,0,0,0,1.85,2.73l-7.58,9.91-12.3,7.23c-2.82,0-8.14.37-13.4-.06-33.93-2.73-53.76,26-56.29,51.51-.31,3.1.71,6.33,1.21,10.21,7.43-3.62,7.07-13.16,16.23-15.65-3.81,6.92-10.35,11.07-9.85,19.39a56.64,56.64,0,0,0,7.2-.84c4.83-1.25,9.58-2.78,14.38-4.17,13-3.75,27.17,3.73,29.8,16.75,5,24.52,3.75,49.05-2.4,73.26a32.79,32.79,0,0,1-5.62,11.63c-12.06,15.67-25.76,29.62-43.59,38.88-13.34,6.92-14.34,15.1-2.71,24.62a22.39,22.39,0,0,0,9.68,4.67c20.32,3.6,39.77,3.13,55.83-12.75,2.88-2.85,7.13-4.31,10.75-6.42Z" transform="translate(1405.16 340.23)"/><path d="M1041.45,623.14c0,2.47.43,5-.07,7.41-2.61,12.35-5.46,24.66-8.24,37a35.84,35.84,0,0,0-1,3.86c-1.37,13.22-3.55,26.43-3.83,39.67-.48,23.6-.35,47.24.56,70.83.92,23.88,2.62,47.77,4.93,71.56,1.18,12.18,3,24.64,7,36.15,11.75,34.25,17.07,69.77,22.06,105.31,3.28,23.31,10.36,45.34,18.09,67.33,1.17,3.32,2,6.77,2.91,10.15l-1.83,1.19c-2.42-2.41-6-4.4-7.08-7.31-5.37-14-11.4-27.85-14.7-42.33-4.25-18.6-5.84-37.8-9.12-56.64-3-17.25-6.35-34.47-10.21-51.55-2.91-12.88-7.11-25.46-10.27-38.3-1.5-6.08-2-12.41-2.78-18.66-1.28-10.81-2.79-21.62-3.43-32.48-.71-11.89-.42-23.83-.81-35.74-.24-7.27-1-14.53-1.43-21.8a459,459,0,0,1,5.12-101.28c2.28-13.71,6.38-27.12,9.75-40.65a21.19,21.19,0,0,1,2.15-4.21Z" transform="translate(1405.16 340.23)"/><path d="M1417.47-91.15c-11.27-1.65-22.46-2.8-33.41-5-10.33-2.11-20.94-3.25-30.45-8.79-9.88-5.76-12.3-11.56-7.91-22a49.09,49.09,0,0,0,2.89-8.46c.82-3.74-.8-8.66,3.89-10.5a98.85,98.85,0,0,1,16.82-4.82c2.43-.48,5.2.75,7.82,1.19,9.73,1.61,11.73.34,11.8-9,0-8.58,2.53-16.33,6.26-23.84a17.58,17.58,0,0,1,1.3-2.69c3.41-4.66,7.32-9.21,13.63-8.59,6.8.67,7.51,7.28,8.55,12.07,1.26,5.74,1.17,11.92.72,17.83-1.09,14.57-3.28,29.07-3.94,43.64C1415-111.25,1416.63-102.17,1417.47-91.15Zm-27.94-45.91c-4.85-1.91-8.69-3.76-12.72-4.93a56,56,0,0,0-13.48-2.63c-1.95-.07-4.85,2.09-5.83,4-2.38,4.69-3.79,9.86-5.79,14.76-2.13,5.21-.73,9.1,4,11.8s9,6.24,14,7.38c11.86,2.73,24,4.47,36,6.16,4.25.6,5.77-2,4.61-6.31-.68-2.49-2.05-5.09-1.77-7.49,1.64-14.08,3.09-28.22,5.78-42.12,1.91-9.85-.61-18.37-4.74-26.77-.84-1.71-3.56-3.6-5.27-3.47s-4.12,2.36-4.77,4.2c-1.78,4.95-3.82,10.17-3.89,15.31-.12,9.57,1.14,19.16,1.7,28.75.2,3.37,1.84,7.22-3.45,10.59Z" transform="translate(1405.16 340.23)"/><path d="M-1021.11,590c-1.87,2-3.52,4.21-5.65,5.84-15.36,11.79-24.3,27.86-31.08,45.55-3.65,9.51-1.52,16.51,5.2,24.38,12.92,15.13,28.2,18.83,46.57,13.88,1.6-.43,3.22-1.18,4.83-1.18,16,0,23.45-11.35,29.32-23.32,4.88-9.94,4.7-21.19-2.51-30.21-8.22-10.28-15.86-21.3-28.37-27.5-7.24-3.58-12.22-9.71-13.49-20,3.08,1.42,5.14,2,6.73,3.18,5,3.77,9.53,8.18,14.72,11.63,12,8,20.91,19,27.44,31.14s5.37,25.8-2.3,38.06c-1.23,2-3.18,3.56-4.12,5.63-6,13.24-17.52,17.23-30.57,19-3,.4-5.83,1.38-8.78,1.86-12.69,2.07-24.57,1-34-9.09-4.75-5.1-10-9.8-14.15-15.35a18.44,18.44,0,0,1-3.21-10.9c.59-16.66,8.64-30.55,18.23-43.43,4.72-6.33,11-11.58,16.73-17.08,1.91-1.82,4.56-2.86,6.87-4.26Z" transform="translate(1405.16 340.23)"/><path d="M1044.64,595.05c.28-2.73.14-5.61.94-8.18,3.46-11.11,7.55-22,10.78-33.2,5.61-19.45,10.72-39,16.12-58.54,1.67-6,3.67-12,5.39-18,4.17-14.7,7.27-29.79,12.64-44,6.62-17.61,11.55-36.17,23.51-51.39,5.29-6.72,5.56-6.52,14.22-4.07,2.8.79,6.1-.22,10-.46,2.18,3,2,8.82,8.08,10.47,8.53,2.33,16.17,8.16,25.8,5.9a49.53,49.53,0,0,1,10.83-1.69c13.88-.08,20.94-8.41,25.34-20.23a8.87,8.87,0,0,1,4.16-5.38c-.44,2.42-.34,5.12-1.43,7.2a148.21,148.21,0,0,1-8.35,13.59c-5.23,7.78-12.67,11.49-22,11.56-3,0-6.14-.12-8.93.74-9.79,3-18.35-.16-26.62-4.8q-9-5-17.64-10.63c-5.08-3.27-7.67-3.47-10.61,2-6,11.08-11.33,22.51-16.55,34-10.27,22.57-14.3,47.08-21.55,70.6-10.27,33.33-19.67,66.94-29.52,100.4-.5,1.7-1.8,3.16-2.73,4.72Z" transform="translate(1405.16 340.23)"/><path d="M1477.44-313c-2.12-3.79-3.41-6.44-5-8.88-3.32-5.08-5.87-5.31-10.29-1.17-7.88,7.39-10.4,24.43-5.36,35.52,1.74,3.83,3.24,7.77,4.63,11.13-1,1.13-1.13,1.56-1.38,1.61-2.8.53-18.61-2.57-20.63-4.35-4.55-4-9.49-5-14.59-1.63-5.42,3.56-8.06,9-7.2,15.39.3,2.18,2.42,5.47,4.23,5.88,14.17,3.19,28.46,6.3,43.1,4.86,8.29-.81,8.59-1.63,9.4-9.92.32-3.31.58-6.62.78-9.95.23-3.95-.07-8,.64-11.85.65-3.52,2.34-6.85,3.58-10.26-4.09-9.57-4.09-9.57,1.4-12.31,3.38,20.4-.41,40.85,1.88,62.39-4-.36-8.09-.54-12.15-1.12-10.37-1.48-20.65-3.39-31.25-2.82a72.42,72.42,0,0,1-14.89-1.09c-10.16-1.58-14.39-9.31-10.81-19,4.53-12.26,17.24-21.65,29.64-16.95.88.33,1.92.22,4.21.44.52-4.15,1.45-8.24,1.46-12.32,0-14.41,7.76-24.16,18.62-32.22,3.9-2.9,6.78-1.94,8.86,2.15C1478.75-324.67,1482.79-320,1477.44-313Z" transform="translate(1405.16 340.23)"/><path d="M-702.33,574c-2.27,4.29-3.6,6.65-4.8,9.07-6.48,13.1-13,26.17-19.31,39.37a42.89,42.89,0,0,0-3,10.53c-2.25,12.12,1,17.28,13,18.51,16.9,1.74,33.82,2.19,50.42-3.11,5.93-1.9,10.41-4.88,11.61-11a102.53,102.53,0,0,0,2.11-18.62c0-5.15-2.62-9.36-7.12-12.51-7.35-5.14-14.34-10.81-21.63-16-5.25-3.77-9.17-8.4-12.54-16.29,3.56,1.11,5.73,1.25,7.21,2.33q15.27,11.19,30.29,22.73c5.19,4,8.84,9.09,9.74,15.72.45,3.27.9,6.73.36,9.93-3.43,20.37-2.62,25.41-27.62,31.83-15.59,4-31.12,3-46.61.71-11.76-1.7-16.67-8.87-14.91-20.61a77.83,77.83,0,0,1,4.73-18.3c4.73-11.35,10.22-22.38,15.59-33.45C-712.7,580.41-709.94,576.39-702.33,574Z" transform="translate(1405.16 340.23)"/><path d="M-57.69,431.4c-.23,2.35-.14,2.84-.32,3C-74.4,447.55-73.33,465-69.35,482.78c1,4.4,4.17,8.25,6,12.52,5.43,12.87,10.12,26.1,16.19,38.65,4.61,9.52,10.58,18.42,16.49,27.23,8,11.92,15.45,24,19.64,37.92,3.82,12.69,2.78,25.5,3.23,38.87-7.52-.28-7.81-5.1-7.59-9.15.45-8.5-1.53-16.44-3.79-24.49a118.57,118.57,0,0,0-16.24-34.91C-48,550.79-60.2,531.58-66,509.29c-2.16-8.3-5.28-16.35-7.33-24.67-3.28-13.23-2.85-26.35,3.13-38.9A33.69,33.69,0,0,1-57.69,431.4Z" transform="translate(1405.16 340.23)"/><path d="M-695.5,1032.59c3.86.15,6.16-7.67,9.9-3.2,2.09,2.5.73,8,.71,12.08,0,.83-1,1.66-1.73,2.83-9.77.44-14.87-9.11-24.43-11.89-2.92,4.57-5.85,9.17-9.08,14.25l-11.06-4.1-7.19,18.35-9.32-1.11-5.37,6.76c-1.32-.19-2.45,0-3.21-.5-5.87-3.52-11.83-6.9-17.39-10.86-2.38-1.69-4-4.75-1.53-7.77,2-2.44,4.79-4.07,7.8-1.74s5.83,5.28,9.18,8.37c4.74-4.53,8.46-11.26,16.06-6.78,8.47-15.88,8.47-15.88,18.86-12.43C-711.24,1023.82-711.24,1023.82-695.5,1032.59Z" transform="translate(1405.16 340.23)"/><path d="M-719.86,1099.62l-11.62-3.75c-2.36,6.26-4.54,12-6.9,18.28l-9.35-1.41-5.41,6.71c-1.5-.27-3-.14-4-.78-5.78-3.72-11.59-7.43-17.05-11.58-2.1-1.59-3.2-4.45-.73-7s5.23-3.3,8-1.08c3,2.42,5.74,5.3,9.13,8.49,4.24-5,7.34-12.1,15.67-6.48,1.52-3.21,2.77-5.83,4-8.46,3.24-7.06,4.43-7.56,12.13-5.19a16.48,16.48,0,0,0,2.78.37c11.89-11.27,13.34-11.38,27.46-1.8l7.76-5.18c5.61,4.83,5.76,7.17,1.09,16.32-9.5.68-14.41-8.56-22.4-11C-715.79,1088.09-716.09,1094.8-719.86,1099.62Z" transform="translate(1405.16 340.23)"/><path d="M-626.06,601c-13.81.18-21.74-6.49-22.87-17.63-1.39-13.6,3.94-25.4,11.11-36.42,2.72-4.16,6.82-6.07,12.14-4.32,4.41,1.45,9.12,2,13.47,3.58,10.12,3.63,20.44,15.69,13.06,30.7a124.85,124.85,0,0,1-7.37,13A23.4,23.4,0,0,1-626.06,601Zm-18.43-25.14c.67,10.84,4.11,16,12.76,18.37a16.33,16.33,0,0,0,14.26-2.18c8.12-5.54,13.94-13,13.37-23-.71-12.55-18.79-21.75-29.92-15.75a12,12,0,0,0-5.29,5.53C-641.45,564.37-642.82,570.18-644.49,575.87Z" transform="translate(1405.16 340.23)"/><path d="M79.47,449c-.69,17.64-9.45,22.87-24.14,19.72-5.64-1.21-11.15-4.41-16-7.77-12.58-8.71-14.63-29-4.52-40.05a12.16,12.16,0,0,0,2-2.16c1.66-3.16,2.43-7.44,7-7.42,4.89,0,10.28-.35,14.56,1.49,7,3,13,8,15.2,16.09C75.62,436.23,77.87,443.51,79.47,449Zm-7.64-.85c-1.41-4.32-3.52-10.9-5.72-17.46-2.29-6.86-7.63-10.74-13.94-13.22-2.21-.87-5.91-1.24-7.41,0-5.89,4.87-11.25,10.8-11.32,18.88-.13,13.89,8,23.59,21.46,27C65.68,466.13,71.6,461.67,71.83,448.13Z" transform="translate(1405.16 340.23)"/><path d="M-747.94,862.69c-1.58-.92-2.78-1.5-3.83-2.27a27.11,27.11,0,0,1-2.63-2.77,58.26,58.26,0,0,1,23.81-15.42c2.18-.72,6-.29,7.4,1.2,4.35,4.64,9.33,2,14.09,2.49,6.21.59,8.76-3.8,11.88-7.64,1.05-1.3,2.18-2.52,3.25-3.79,6.07-7.17,8.11-7.57,16.91-3.49a16.16,16.16,0,0,0,3.3.66c5.63-4.47,6.16-17.61,18-11.24,3.59-4.19,2.15-7.84,1-11.74-.41-1.36,1.07-3.28,1.68-4.95,1.3,1.16,3.63,2.24,3.73,3.49.58,7.82,1.2,15.73-1.63,24.24l-11.72-4.21c-1.81,2.52-3.88,5.31-5.85,8.17-3.34,4.86-4.53,5.14-9.67,2.05-6.78-4.07-7.54-4-12.23,1.51a45.4,45.4,0,0,0-4.71,6.44c-2.87,5-6.09,8.83-12.71,7a5.63,5.63,0,0,0-3.83.68c-4.38,2.44-8.27,2.06-11.76-1.58s-7.1-2.89-10.63-.07C-738.51,854.93-742.85,858.53-747.94,862.69Z" transform="translate(1405.16 340.23)"/><path d="M-780.49,543.93c5.74-6,7.32-6.38,12.06-3.43,13.21,8.23,23,35,18.22,49.81-2.87,8.83-8.9,12.42-18.4,11-2.3-.35-4.59-.76-6.89-1.06-10.23-1.32-11.56-2.75-13.13-12.7-1.66-10.53,1.84-19.8,7.36-28.21,2.17-3.3,6.6-5.12,10-7.65C-773.54,547-773.54,547-780.49,543.93Zm13.68,11.91c-14.45,5.77-21,19.46-15.91,32.91.73,2,2.39,4.35,4.19,5A46.86,46.86,0,0,0-766,596.54c5.6.43,9-2.09,9.85-7.65C-754.21,576.11-757.52,564.9-766.81,555.84Z" transform="translate(1405.16 340.23)"/><path d="M-950.38,560.9c2.67-2.09,5.17-5.62,8.06-6,7.46-.94,15.47-2,22.59-.25,13.6,3.33,19.72,22.25,11.47,34.43a48.44,48.44,0,0,1-24.91,19.16c-7.83,2.61-11.89.54-13-7.35a76.75,76.75,0,0,1,.23-20.81c.45-3.13,3.63-6.14,6.18-8.57.92-.87,3.62.13,5.88,1.16-9.87,6.08-9.85,15.08-8.75,24.17.64,5.36,3.13,6.71,8.47,5.48,8.84-2,15.84-7.39,21.14-14.26,7.53-9.76,1.06-25.46-11.17-27.22-6.11-.88-12.51.15-18.78.52a43.44,43.44,0,0,0-6.37,1.32Z" transform="translate(1405.16 340.23)"/><path d="M-713.25,510c-.65,5.26-.73,10.67-2,15.76-3.44,13.2-17.66,17.55-28.2,8.94-12.08-9.86-16.77-23-11.06-35.88,2.32-5.24,5.39-8.56,11.22-10.11,6.49-1.72,12.52-1.08,18.59.89,8.27,2.68,10.85,6.44,11,15.36,0,1.67,0,3.33,0,5Zm-5.79,4.1c.53-12.88-2.39-16.81-13.33-18.58a31.91,31.91,0,0,0-10.85.29,9.44,9.44,0,0,0-5.52,3.71c-7.07,10.59-1.56,28.16,10.15,33.14,9.55,4.05,17.27-.13,18.76-10.27C-719.35,519.11-719.19,515.78-719,514.1Z" transform="translate(1405.16 340.23)"/><path d="M-673,490.11c-8.28,2.77-10.63,8.09-11.82,14.19-1.73,8.78-4.48,17.5-4.94,26.35-.65,12.75,6.92,16.74,18,10.52,13.63-7.64,16.15-21.09,6.55-34.74-1.94-2.76-6.07-5-2.57-9.28,7,1.79,13.41,10.12,14.51,18.93A30.47,30.47,0,0,1-674,548.74c-9.79,3.13-18.15-1.64-20.47-11.71a9.84,9.84,0,0,1-.48-2.95c1.18-15,3.71-29.67,11.87-42.78C-681,488-678.73,486.57-673,490.11Z" transform="translate(1405.16 340.23)"/><path d="M27.79,535.43c-.82.48-2.19.8-2.37,1.44-3.35,12.5-7,25-4.86,38.18,1.14,7.21,1.87,14.49,3,21.71,1.22,8.08,5.94,12.44,13.87,15,16.36,5.28,28.25,1.44,37.8-13.08,5.32-8.09,9.35-17,13.46-24.68,3.62,18.54-16.89,48-47.57,43.4-3-.44-5.85-1.26-8.79-1.75-6.73-1.11-10.74-5.19-12-11.63a231.36,231.36,0,0,1-3.7-23.35c-1.18-12.45-.94-24.9,2.53-37.09,1.28-4.51,2-9.52,8.71-8.11Z" transform="translate(1405.16 340.23)"/><path d="M-23.89,459.32c.47-3.16.44-5.91,1.35-8.31,1.49-3.89,4.61-5.56,8.82-4.37,4.43,1.24,8.91,2.37,13.23,3.93,5.85,2.11,11.08,5.68,12.63,11.84a164.77,164.77,0,0,1,4.72,27.31c.5,6.39-3.32,11.43-9.74,13.62-7.37,2.52-14.8,4.3-21.48-1.78A5,5,0,0,1-15.54,499c-.11-.56.34-1.23.78-2.63l4.92,2.7c8.16,4.5,17.63.26,18.71-8.79a44.43,44.43,0,0,0-2.63-22.33c-4.2-10.62-12-13.57-21.85-13.56C-18.13,454.38-20.65,457.29-23.89,459.32Z" transform="translate(1405.16 340.23)"/><path d="M-1038.35,504.1c22.75-1.69,25,14.93,22.18,31.17-2.09,12-14.47,19-26.36,16.11-5.6-1.34-9.69-4.77-10.44-10.68-1.35-10.54-.38-20.53,8.19-28.39C-1042.49,510.21-1040.87,507.37-1038.35,504.1Zm18.16,23.26v-2c0-5.59-1.63-10.21-6.68-13.51-5.86-3.83-8.89,1.38-12.94,3.44a12.08,12.08,0,0,0-1.71,1c-5.91,4.5-9.3,15.35-7.13,22.45,1.3,4.26,4.16,6.55,8.48,7.28C-1026.92,548.28-1019.93,541.76-1020.19,527.36Z" transform="translate(1405.16 340.23)"/><path d="M-1115.59,556.31c-.78-8.69,2.11-16.52,4.94-24.33a8,8,0,0,1,2.78-3.87c8.81-5.71,25.08.72,27.94,10.91,4.44,15.86-8.53,38.57-24.44,43.15-5.09,1.47-7.07-1.72-7.88-5.26C-1113.8,570.15-1114.53,563.19-1115.59,556.31Zm7.39,21.15c18.79-4.92,26-21,24.21-33.47-1-6.47-5.11-10-13.23-10.93-7.39-.85-10.73.57-12.41,6.79C-1113,552.25-1111.67,564.53-1108.2,577.46Z" transform="translate(1405.16 340.23)"/><path d="M-954.35,538.92c.83,7.08-3,11.86-8.28,15-5.83,3.48-12.59,4.59-19.17,1.93a8.16,8.16,0,0,1-4.39-5.07,204.12,204.12,0,0,1-2.49-20.65c-.2-2.59,1.43-5.48.78-7.84-1.87-6.81,2.45-9,7.27-10.95,9.87-4,20,.68,22.91,10.94C-956.16,527.72-955.45,533.37-954.35,538.92Zm-30.6-4.42c.37,3,.75,6.31,1.18,9.58.69,5.29,4.25,7,9,7.32,6.74.39,13.9-2.37,14.25-6.53.66-7.84.94-15.94-3.68-23a10.6,10.6,0,0,0-12.1-4.75c-4.56,1.13-7.17,4.56-7.91,9.2C-984.59,528.94-984.68,531.59-984.95,534.5Z" transform="translate(1405.16 340.23)"/><path d="M-1013,932.32l4.18-10.62,2.15-.21L-1002,933c8.1-1.88,5.61-9.53,8.17-14.18,3.38,6.83,2.49,10.34-4,18.17-4.65.74-8.28,1.74-11.91,1.76a15.69,15.69,0,0,1-7.19-2.19c-8.65-4.71-10.3-4.14-13.27,5.24-.68,2.13-1.39,4.26-2.37,7.25l-7.47-5.17c-4.39.23-5.69,2.33-12.71,20.71-.85-2.61-2-4.26-1.7-5.58.87-3.84,2.41-7.53,3.55-11.31,3.07-10.22,4.69-11.39,14.78-10.84,3.47-3.4,6.24-8.34,9.8-9C-1022.55,927.11-1018,930.45-1013,932.32Z" transform="translate(1405.16 340.23)"/><path d="M-1110.76,1024.85c-1.11-7.48-1.89-12.75-2.67-18l2.08-.49c.55,1.55,1.12,3.11,1.65,4.67.11.31,0,.68.17,1,1.17,3,20.36,11.36,22.75,9.4,5.61-4.62,10-2.79,15.16.87,2.73,1.93,6.84,2.73,10.28,2.63,4.5-.13,8,1.21,10.5,4.52,5.46,7.16,12,8.75,20.24,5.26,1.71-.73,3.81-.53,6.12-.81-5.23,8.26-12.45,10.65-19.77,6.67a28.25,28.25,0,0,1-7.13-5.37,16.63,16.63,0,0,0-12.22-5.68,19.39,19.39,0,0,1-8.48-2.64c-4.71-2.67-8.89-4.23-13.49.28-2.62,2.57-5.58,1.39-8-.89C-1098,1022-1102.89,1020-1110.76,1024.85Z" transform="translate(1405.16 340.23)"/><path d="M33.48,516c4.38-3,7.25-5.68,10.65-7.12a39.82,39.82,0,0,1,27.29-1.52c8.62,2.56,13.93,8.19,15.46,17.55,1.12,6.82,3.31,13.49,5.3,20.14,1.82,6.1,2.83,12.06-.46,19.13-1.38-1.66-2.55-2.45-2.79-3.45-2.66-11-5.08-22-7.75-32.9-2.9-11.91-13-19.38-25.12-17.7C49,511.06,42.24,513.62,33.48,516Z" transform="translate(1405.16 340.23)"/><path d="M135.1,494.4c.47,2.4,2.15,5.56,1.2,7.05-5.86,9.24-15.71,17.26-27.81,16.19-5-.45-9.14-2.47-11.41-6.92C91.6,500,87.15,488.93,90.56,476.4c1.38-5.08,3.71-8.95,10.39-10.19-.33,2.25-.1,4-.83,5.11-7.65,11.59-4.32,23,.94,34,4.74,9.86,14.13,11.19,22,3.52,4.45-4.33,8.14-9.45,12.17-14.22Z" transform="translate(1405.16 340.23)"/><path d="M566.84,711.57c-.92-1.08-1.76-1.68-1.67-2,3.71-13,6.6-26.21,15.36-37.14,4.13-5.15,8.38-1.23,13.38-1.57-2.78,12.19-5.4,23.7-8,35.24-8-3.91-8.17-4.37-6-12.14a28.57,28.57,0,0,0,1-11.45C572.83,690.4,573.43,702.29,566.84,711.57Z" transform="translate(1405.16 340.23)"/><path d="M-963.62,761.25c-1.85,4.78-3.46,9-5.74,14.87l-8.92-9.07-14.19,13.52-4.88-4.14,17.54-19.81,8.89,5.71c2.9-7.19,5.54-14.61,15-14.25C-950.83,757.68-952.4,760.57-963.62,761.25Z" transform="translate(1405.16 340.23)"/><path d="M-1089.16,827.28c6.71,9.31,9.91,10.59,21.09,9.55a18.22,18.22,0,0,1,11.15,2.54c6.63,4.48,12.67,4.38,19.52.86,4.26-2.18,8.33-5.81,14.48-3.87.53,1.45,1.26,3.19,1.79,5,.45,1.55.67,3.17,1.2,5.81-2.88-2.15-4.82-4.66-7.07-5s-5.08,1.15-7.25,2.49c-7.45,4.59-14.67,3.16-21.64-.71-4.93-2.74-9.44-3.68-15-1.45-3.08,1.22-7.1,0-10.69,0-4.66.08-6.49-2.59-6.88-6.74C-1088.76,833-1088.94,830.12-1089.16,827.28Z" transform="translate(1405.16 340.23)"/><path d="M135.26,494.62c-.51-4.95-.69-10-1.59-14.84-1.71-9.3-6.91-13.64-16.32-14.47-4.81-.42-9.6-1-16.47-1.8,4.55-4.24,8-4.86,11.48-4.62a75,75,0,0,1,11.82,1.79c11.36,2.67,16.18,8.47,17.49,20,.69,6.1-2.91,9.85-6.6,13.7A2.79,2.79,0,0,1,135.26,494.62Z" transform="translate(1405.16 340.23)"/><path d="M1020.63,194.81c-10.12,13-20.42,24.38-28.59,37.15-8,12.59-13.93,26.56-20.76,39.92l-1.89-.68c0-1.77-.57-3.79.09-5.27C981.31,239.5,1007,203.65,1020.63,194.81Z" transform="translate(1405.16 340.23)"/><path d="M-1075.18,1076.48c5.87.56,11.79.8,17.57,1.84a11.6,11.6,0,0,1,6.57,4c5.76,7.54,12.64,8.92,21.07,5.18,1.67-.75,3.71-.67,6.16-1.06-6.36,9.21-13.73,11.19-21.88,6.19-2.51-1.55-4.48-4-7-5.49a55.79,55.79,0,0,0-9.53-4.35c-4.51-1.63-9.16-2.91-13.75-4.35Z" transform="translate(1405.16 340.23)"/><path d="M943.75,333c.48-11.26,6.06-21.19,10.1-31.27,3.25-8.12,6.18-16.91,11.69-24l2.05,1c-4.09,9.2-8.5,18.27-12.2,27.61-3.56,9-6.39,18.23-9.55,27.36Z" transform="translate(1405.16 340.23)"/><path d="M1077.7,149.28c-2.84,2.63-5.29,6-8.59,7.77-9.53,5.1-17.5,11.95-25.07,19.53a109.56,109.56,0,0,1-17.39,13.88c15.46-15.73,30.31-32.22,51.3-41Z" transform="translate(1405.16 340.23)"/><path d="M541.19,749.53c-.36-12.16,9.54-16.62,16.08-25.53.22,7.57-4.2,10.53-7,14.27S548.56,748.35,541.19,749.53Z" transform="translate(1405.16 340.23)"/><path d="M-14.65,422.86l-5.58,7.92-18.21-9.24c3.89-2,7.73-.57,11.69.19C-23,422.45-19.16,422.47-14.65,422.86Z" transform="translate(1405.16 340.23)"/><path d="M-8.66,643.86c4.42,8.24,5.28,14.38,2.79,26.17-.85-6.12-1.22-10-2-13.86-.79-4-1.95-7.95-2.95-11.92Z" transform="translate(1405.16 340.23)"/><path d="M171.19,513.37c1.21-9.76,2.43-19.52,3.71-29.81C177.22,493.74,176.44,501.47,171.19,513.37Z" transform="translate(1405.16 340.23)"/><path d="M672.05,795.34a37.77,37.77,0,0,1-2.52-21.9C673.45,780.72,674.08,784.91,672.05,795.34Z" transform="translate(1405.16 340.23)"/><path d="M-704.44,461-680.18,445c-7.19,6.8-13.25,15.39-24.4,15.91Z" transform="translate(1405.16 340.23)"/><path d="M112.91,413c11.38-2.16,13.23-2,19.47,3.42Z" transform="translate(1405.16 340.23)"/><path d="M1044.85,601.09c1.76,5.86.31,10.39-1.93,15.5C1038.48,611.51,1038.74,609.79,1044.85,601.09Z" transform="translate(1405.16 340.23)"/><path d="M125.88,603c-.28-8.25,3.7-15.05,7.39-21.94-.67,7.89-2.61,15.33-7.54,21.72Z" transform="translate(1405.16 340.23)"/><path d="M175.49,453.87V475.5c-3.47-1.48-2-4.09-1.78-6.38a70.39,70.39,0,0,0,.17-7.82c-.1-2.52-.49-5-.75-7.53Z" transform="translate(1405.16 340.23)"/><path d="M-21.62,478.07q1.47,7.32,2.93,14.64c-5.92-3.61-5.91-8.83-6-14Z" transform="translate(1405.16 340.23)"/><path d="M97.93,416.25c-12.77,2.22-13.86,1.53-14-9.44C88.07,411.61,90.88,417.32,97.93,416.25Z" transform="translate(1405.16 340.23)"/><path d="M121.4,660V642.74h1.48V660Z" transform="translate(1405.16 340.23)"/><path d="M1078,149.5c4.78-3.38,9.41-7,14.42-10,1.79-1.07,4.54-.52,6.84-.71l.36,2.08c-3.76,1.28-7.56,2.45-11.26,3.87s-7.06,3-10.6,4.54Z" transform="translate(1405.16 340.23)"/><path d="M-1094.66,1076.67h11C-1088.6,1082.78-1088.6,1082.78-1094.66,1076.67Z" transform="translate(1405.16 340.23)"/><path d="M158.81,538.25l-7.66,13.31-1.78-1.19c2-4.84,3.67-9.85,9.61-11.87Z" transform="translate(1405.16 340.23)"/><path d="M27.79,535.47c0-8.07.32-8.44,8.72-11.64-2.49,3.26-5.63,7.39-8.75,11.56A.15.15,0,0,1,27.79,535.47Z" transform="translate(1405.16 340.23)"/><path d="M121.63,633.48v-10C126.38,627.59,122.35,630.51,121.63,633.48Z" transform="translate(1405.16 340.23)"/><path d="M79.25,393.43l4.31,5.7L82,400.5,77.37,395Z" transform="translate(1405.16 340.23)"/><path d="M125.73,602.73q-.27,6.49-.53,13c-4.22-4.87-2.17-8.85.71-12.73C125.88,603,125.73,602.73,125.73,602.73Z" transform="translate(1405.16 340.23)"/><path d="M61.83,382.27l-8.71-4.12c3.69-.21,7.22-.1,8.49,4.27Z" transform="translate(1405.16 340.23)"/><path d="M138.47,567l2.93-5.65c.65.33,1.3.66,1.94,1L140.51,568Z" transform="translate(1405.16 340.23)"/><path d="M145.85,422.5l4.79,2.46-.52,1.26a16.81,16.81,0,0,1-3-1,10.25,10.25,0,0,1-2-1.85Z" transform="translate(1405.16 340.23)"/><path d="M911.57,541.13a21.19,21.19,0,0,1,3.46-.19c.31,0,.53,1,.79,1.53l-4.18.81C911.61,542.56,911.59,541.84,911.57,541.13Z" transform="translate(1405.16 340.23)"/><path d="M159,538.5l2.19-6.16,1.26.67c-1.22,1.73-2.44,3.46-3.64,5.22Z" transform="translate(1405.16 340.23)"/><path d="M562.3,719.27l-1.53,1c-.25-.49-.82-1.15-.67-1.43.25-.46.95-.67,1.47-1C561.81,718.3,562.05,718.79,562.3,719.27Z" transform="translate(1405.16 340.23)"/><path d="M40.13,376.23h4.42c0,.18,0,.36,0,.55H40.15Z" transform="translate(1405.16 340.23)"/><path d="M61.61,382.42c2.44-.49,4.77-.7,6.94,4-3.3-2.1-5-3.17-6.69-4.21Z" transform="translate(1405.16 340.23)"/><path d="M318.8,452.28c10.6-2,21.8.74,32.28,6,7.36,3.72,9.86,11.46,11.72,18.91a171.17,171.17,0,0,1,4.72,51.38c-.86,15.12-7.22,23.91-21.88,26.77a107.82,107.82,0,0,1-30.6,1.88c-14.44-1.39-20.84-12.9-24.87-25.21-9.16-28,.41-50.58,21.3-69.63C314.17,460,315.88,456.4,318.8,452.28Zm42.08,66.51,1.12-.27c-2.51-13.65-4.15-27.54-7.75-40.91-4.08-15.18-23.8-22.26-37.2-14.08-9.33,5.7-15.38,14.7-20,24.18-8.35,17-4,33.73,3.39,49.78,3.85,8.35,10.55,13.7,20.38,13.42,8.59-.24,17.21-.33,25.73-1.3,8.05-.92,11.44-4.68,12.7-13C360.12,530.73,360.35,524.74,360.88,518.79Z" transform="translate(1405.16 340.23)"/><path class="cls-1" d="M265.63,405.6l4.72-2.78c6.57-.08,13.17-.52,19.7-.05,2.24.16,5,2.08,6.35,4,4.11,6.06,3.25,19.35-1,24.37-4.94,5.75-17.94,9.15-24.76,6.36-1.18-.48-2.72-1.22-3.15-2.24-2.56-6.06-5.86-12.09-6.8-18.45C260.13,413.42,263.83,409.37,265.63,405.6Z" transform="translate(1405.16 340.23)"/><path d="M337.43,421.37c-9.79-1-17.69-3.43-21.92-12.61-4.55-9.89-6-19.67,1.49-29.05a19.78,19.78,0,0,0,3.85-6.89c1.62-6.25,6.59-8.57,11.75-9.43,16.57-2.76,38.86,13.06,38.18,30.82-.38,9.62-3.66,16.87-12.86,20.41C351.22,417.2,344.27,419.14,337.43,421.37Zm3.46-5.21c4.94-1.77,10-3.31,14.81-5.35,7.4-3.13,8.35-5,8.23-12.78-.21-12.82-8.45-19.52-18.5-25.1-5.65-3.14-10.4-4-16.38.33-9.23,6.72-13.47,15.28-10.65,25.56C321.37,409.67,328.63,415,340.89,416.16Z" transform="translate(1405.16 340.23)"/><path d="M421.75,426.81c-2.06,10.24-3.35,19.14-5.72,27.76s-7.1,11-15.73,9.7c-10.73-1.64-20.15-5.22-23.38-17s-2.68-23.09,5.9-32.85c7.45-8.47,27-9.67,34.25-1.14C420.13,416.9,420.46,422.81,421.75,426.81Zm-6.91,3.24c-.1-5.17.3-10.53-5.48-12.88-4.25-1.73-8.92-3.46-13.35-3.35-3.48.08-8,2.1-10.13,4.79-8.36,10.59-4.32,35.35,13.63,39.9,6.81,1.73,9.29.77,11.05-6C412.47,445.12,413.45,437.53,414.84,430.05Z" transform="translate(1405.16 340.23)"/><path d="M265.63,405.6c-1.8,3.77-5.5,7.82-5,11.24.94,6.36,4.24,12.39,6.8,18.45.43,1,2,1.76,3.15,2.24,6.82,2.79,19.82-.61,24.76-6.36,4.3-5,5.16-18.31,1-24.37-1.32-1.95-4.11-3.87-6.35-4-6.53-.47-13.13,0-19.7.05,7.07-8.23,16.36-7.54,25.52-5.73,2.48.49,5.47,3.22,6.47,5.65,7.06,17.24,1.18,31.63-16.43,38.27-4.25,1.6-9.09,1.6-13.65,2.39-6.24,1.08-10.22-1.72-12.44-7.33a78.06,78.06,0,0,1-3.54-10.32C253.85,415.45,256,411,265.63,405.6Z" transform="translate(1405.16 340.23)"/><path class="cls-1" d="M328.25,1002.09c3.78-1.58,7.5-3.13,8.95,2.86.69,2.89,1.4,6.11-2.92,7S328.7,1011,328.25,1002.09Z" transform="translate(1405.16 340.23)"/><path class="cls-1" d="M339.63,1042.91v8.42l-1.92.14-.48-8.43Z" transform="translate(1405.16 340.23)"/><path class="cls-1" d="M337.94,1103.53v-7.15l1.31.06v7.15Z" transform="translate(1405.16 340.23)"/><path class="cls-1" d="M960.25,625.44c1.42,16.58-8.62,28.44-17.12,40.94C945.52,651.36,949.85,637.15,960.25,625.44Z" transform="translate(1405.16 340.23)"/><path class="cls-1" d="M888.34,637.18c2,13.46-4.09,24.5-4.42,36.21C882,660.43,883.4,648.08,888.34,637.18Z" transform="translate(1405.16 340.23)"/><path class="cls-1" d="M903.07,675.35c.91-8,1.83-16,2.94-25.62C910.07,656,909.12,662.8,903.07,675.35Z" transform="translate(1405.16 340.23)"/><path class="cls-1" d="M949.3,599.4c.39-2.89.79-5.78,1.2-8.82,5.36.52,8.52,2.57,7.83,6.73-.26,1.58-4.31,2.52-6.64,3.76Z" transform="translate(1405.16 340.23)"/><path class="cls-1" d="M896,741.68c-1.33-5.29-.33-8.41,3.91-9.56.79-.22,2.84,1.09,2.94,1.88C903.41,738.62,899.93,739.83,896,741.68Z" transform="translate(1405.16 340.23)"/><path class="cls-1" d="M61.71,955.32c-12.78,2.52-15.81,1.54-20.91-6.6,4.87-1.23,9.19-3.44,12.35,3.21C54,953.76,58.19,954,61.71,955.32Z" transform="translate(1405.16 340.23)"/><path class="cls-1" d="M83.31,902.69a47.54,47.54,0,0,1-.08,22.77Q81.94,914,80.66,902.63Z" transform="translate(1405.16 340.23)"/><path class="cls-1" d="M50.66,914.56l-5.39,11.53c-3.39-7-3.38-7,3.46-12.51Z" transform="translate(1405.16 340.23)"/><path class="cls-1" d="M82.55,948.12a18.93,18.93,0,0,1-3.57,2c-.22.07-1.39-1.43-1.24-1.93a3.05,3.05,0,0,1,2-1.79C80.29,946.28,81.1,947.19,82.55,948.12Z" transform="translate(1405.16 340.23)"/><path d="M702.74,886.36c-5.17-7.1-10.45-14.12-15.39-21.37-.83-1.22-.9-4.39-.06-5,2.67-2.1,4,.41,5.12,2.5q6.09,11.32,12.15,22.66Z" transform="translate(1405.16 340.23)"/><path class="cls-1" d="M4,769.05c-1.5-2-3.07-3.25-3.34-4.74-.17-.94,1.58-2.24,2.46-3.38a30.23,30.23,0,0,1,4.16,4.32C7.47,765.55,5.55,767.28,4,769.05Z" transform="translate(1405.16 340.23)"/><path class="cls-1" d="M1173.57-42c8.32-23.93,28.1-28.17,45.5-14.93,5.91,4.5,11.86,9,19.31,14.58.64-6,1.62-10.49,1.48-14.91-.41-12.26,4.66-19.57,16.76-23.34,10.88-3.39,21.33-4.72,32.2-1.16,4.58,1.51,7.35,4.38,9.81,9,4.47,8.31,7,17,9.52,25.94a29.31,29.31,0,0,1,.14,16.47c-4,15-10.89,28.51-18.48,41.83-4.11,7.2-9,14.23-11.52,22-3.64,11.44-11.83,19.9-17.17,30.15-.69,1.32-2.32,2.16-4.13,3.76a54.66,54.66,0,0,1-4.18-5.72,108.2,108.2,0,0,1-4.75-9.89c-4.53-10.73-12.13-18.74-21.2-25.9-10.67-8.42-22.15-16.49-30.59-26.9-8.26-10.18-18.59-20.32-18.38-35.49C1177.92-38.28,1175.14-40.08,1173.57-42Z" transform="translate(1405.16 340.23)"/><path class="cls-1" d="M1389.53-137.06l4.48,9.24c5.29-3.37,3.65-7.22,3.45-10.59-.56-9.59-1.82-19.18-1.7-28.75.07-5.14,2.11-10.36,3.89-15.31.65-1.84,3-4.07,4.77-4.2s4.43,1.76,5.27,3.47c4.13,8.4,6.65,16.92,4.74,26.77-2.69,13.9-4.14,28-5.78,42.12-.28,2.4,1.09,5,1.77,7.49,1.16,4.28-.36,6.91-4.61,6.31-12.07-1.69-24.18-3.43-36-6.16-5-1.14-9.41-4.76-14-7.38s-6.16-6.59-4-11.8c2-4.9,3.41-10.07,5.79-14.76,1-1.92,3.88-4.08,5.83-4a56,56,0,0,1,13.48,2.63C1380.84-140.82,1384.68-139,1389.53-137.06Z" transform="translate(1405.16 340.23)"/><path class="cls-1" d="M-644.49,575.87c1.67-5.69,3-11.5,5.18-17a12,12,0,0,1,5.29-5.53c11.13-6,29.21,3.2,29.92,15.75.57,10-5.25,17.43-13.37,23a16.33,16.33,0,0,1-14.26,2.18C-640.38,591.85-643.82,586.71-644.49,575.87Z" transform="translate(1405.16 340.23)"/><path class="cls-1" d="M71.83,448.13c-.23,13.54-6.15,18-16.93,15.24-13.46-3.45-21.59-13.15-21.46-27,.07-8.08,5.43-14,11.32-18.88,1.5-1.24,5.2-.87,7.41,0,6.31,2.48,11.65,6.36,13.94,13.22C68.31,437.23,70.42,443.81,71.83,448.13Z" transform="translate(1405.16 340.23)"/><path class="cls-1" d="M-766.81,555.84c9.29,9.06,12.6,20.27,10.66,33-.84,5.56-4.25,8.08-9.85,7.65a46.86,46.86,0,0,1-12.53-2.77c-1.8-.67-3.46-3-4.19-5C-787.76,575.3-781.26,561.61-766.81,555.84Z" transform="translate(1405.16 340.23)"/><path class="cls-1" d="M-719,514.1c-.15,1.68-.31,5-.79,8.29-1.49,10.14-9.21,14.32-18.76,10.27-11.71-5-17.22-22.55-10.15-33.14a9.44,9.44,0,0,1,5.52-3.71,31.91,31.91,0,0,1,10.85-.29C-721.43,497.29-718.51,501.22-719,514.1Z" transform="translate(1405.16 340.23)"/><path class="cls-1" d="M-1020.19,527.36c.26,14.4-6.73,20.92-20,18.67-4.32-.73-7.18-3-8.48-7.28-2.17-7.1,1.22-18,7.13-22.45a12.08,12.08,0,0,1,1.71-1c4-2.06,7.08-7.27,12.94-3.44,5,3.3,6.66,7.92,6.68,13.51Z" transform="translate(1405.16 340.23)"/><path class="cls-1" d="M-1108.2,577.46c-3.47-12.93-4.78-25.21-1.43-37.61,1.68-6.22,5-7.64,12.41-6.79,8.12.93,12.28,4.46,13.23,10.93C-1082.17,556.47-1089.41,572.54-1108.2,577.46Z" transform="translate(1405.16 340.23)"/><path class="cls-1" d="M-984.95,534.5c.27-2.91.36-5.56.78-8.17.74-4.64,3.35-8.07,7.91-9.2a10.6,10.6,0,0,1,12.1,4.75c4.62,7,4.34,15.15,3.68,23-.35,4.16-7.51,6.92-14.25,6.53-4.79-.28-8.35-2-9-7.32C-984.2,540.81-984.58,537.53-984.95,534.5Z" transform="translate(1405.16 340.23)"/><path class="cls-1" d="M360.88,518.79c-.53,6-.76,11.94-1.66,17.84-1.26,8.3-4.65,12.06-12.7,13-8.52,1-17.14,1.06-25.73,1.3-9.83.28-16.53-5.07-20.38-13.42-7.41-16-11.74-32.8-3.39-49.78,4.65-9.48,10.7-18.48,20-24.18,13.4-8.18,33.12-1.1,37.2,14.08,3.6,13.37,5.24,27.26,7.75,40.91Z" transform="translate(1405.16 340.23)"/><path class="cls-1" d="M340.89,416.16c-12.26-1.13-19.52-6.49-22.49-17.34-2.82-10.28,1.42-18.84,10.65-25.56,6-4.36,10.73-3.47,16.38-.33,10.05,5.58,18.29,12.28,18.5,25.1.12,7.75-.83,9.65-8.23,12.78C350.87,412.85,345.83,414.39,340.89,416.16Z" transform="translate(1405.16 340.23)"/><path class="cls-1" d="M414.84,430.05c-1.39,7.48-2.37,15.07-4.28,22.42-1.76,6.81-4.24,7.77-11.05,6-17.95-4.55-22-29.31-13.63-39.9,2.13-2.69,6.65-4.71,10.13-4.79,4.43-.11,9.1,1.62,13.35,3.35C415.14,419.52,414.74,424.88,414.84,430.05Z" transform="translate(1405.16 340.23)"/></svg>